<?xml version="1.0" encoding="UTF-8"?>
<!--Generator: Apple Native CoreSVG 175-->
<!DOCTYPE svg
PUBLIC "-//W3C//DTD SVG 1.1//EN"
       "http://www.w3.org/Graphics/SVG/1.1/DTD/svg11.dtd">
<svg version="1.1" xmlns="http://www.w3.org/2000/svg" xmlns:xlink="http://www.w3.org/1999/xlink" width="3300" height="2200">
 <!--glyph: "uni100FCD.medium", point size: 100.0, font version: "17.0d11e1", template writer version: "65.1"-->
 <g id="Notes">
  <rect height="2200" id="artboard" style="fill:white;opacity:1" width="3300" x="0" y="0"/>
  <line style="fill:none;stroke:black;opacity:1;stroke-width:0.5;" x1="263" x2="3036" y1="292" y2="292"/>
  <text style="stroke:none;fill:black;font-family:sans-serif;font-size:13;font-weight:bold;" transform="matrix(1 0 0 1 263 322)">Weight/Scale Variations</text>
  <text style="stroke:none;fill:black;font-family:sans-serif;font-size:13;text-anchor:middle;" transform="matrix(1 0 0 1 559.711 322)">Ultralight</text>
  <text style="stroke:none;fill:black;font-family:sans-serif;font-size:13;text-anchor:middle;" transform="matrix(1 0 0 1 856.422 322)">Thin</text>
  <text style="stroke:none;fill:black;font-family:sans-serif;font-size:13;text-anchor:middle;" transform="matrix(1 0 0 1 1153.13 322)">Light</text>
  <text style="stroke:none;fill:black;font-family:sans-serif;font-size:13;text-anchor:middle;" transform="matrix(1 0 0 1 1449.84 322)">Regular</text>
  <text style="stroke:none;fill:black;font-family:sans-serif;font-size:13;text-anchor:middle;" transform="matrix(1 0 0 1 1746.56 322)">Medium</text>
  <text style="stroke:none;fill:black;font-family:sans-serif;font-size:13;text-anchor:middle;" transform="matrix(1 0 0 1 2043.27 322)">Semibold</text>
  <text style="stroke:none;fill:black;font-family:sans-serif;font-size:13;text-anchor:middle;" transform="matrix(1 0 0 1 2339.98 322)">Bold</text>
  <text style="stroke:none;fill:black;font-family:sans-serif;font-size:13;text-anchor:middle;" transform="matrix(1 0 0 1 2636.69 322)">Heavy</text>
  <text style="stroke:none;fill:black;font-family:sans-serif;font-size:13;text-anchor:middle;" transform="matrix(1 0 0 1 2933.4 322)">Black</text>
  <line style="fill:none;stroke:black;opacity:1;stroke-width:0.5;" x1="263" x2="3036" y1="1903" y2="1903"/>
  <g transform="matrix(1 0 0 1 263 1933)">
   <path d="M9.24805 0.830078Q10.8691 0.830078 12.2949 0.214844Q13.7207-0.400391 14.8096-1.49414Q15.8984-2.58789 16.5186-4.01367Q17.1387-5.43945 17.1387-7.05078Q17.1387-8.66211 16.5186-10.0879Q15.8984-11.5137 14.8047-12.6074Q13.7109-13.7012 12.2852-14.3164Q10.8594-14.9316 9.23828-14.9316Q7.62695-14.9316 6.20117-14.3164Q4.77539-13.7012 3.69141-12.6074Q2.60742-11.5137 1.9873-10.0879Q1.36719-8.66211 1.36719-7.05078Q1.36719-5.43945 1.9873-4.01367Q2.60742-2.58789 3.69629-1.49414Q4.78516-0.400391 6.21094 0.214844Q7.63672 0.830078 9.24805 0.830078ZM9.24805-0.654297Q7.91992-0.654297 6.7627-1.14746Q5.60547-1.64062 4.73145-2.51953Q3.85742-3.39844 3.36426-4.56055Q2.87109-5.72266 2.87109-7.05078Q2.87109-8.37891 3.35938-9.54102Q3.84766-10.7031 4.72168-11.582Q5.5957-12.4609 6.75293-12.9541Q7.91016-13.4473 9.23828-13.4473Q10.5762-13.4473 11.7334-12.9541Q12.8906-12.4609 13.7695-11.582Q14.6484-10.7031 15.1465-9.54102Q15.6445-8.37891 15.6445-7.05078Q15.6445-5.72266 15.1514-4.56055Q14.6582-3.39844 13.7842-2.51953Q12.9102-1.64062 11.748-1.14746Q10.5859-0.654297 9.24805-0.654297ZM5.6543-7.05078Q5.6543-6.72852 5.85938-6.52832Q6.06445-6.32812 6.40625-6.32812L8.51562-6.32812L8.51562-4.20898Q8.51562-3.88672 8.71094-3.67676Q8.90625-3.4668 9.23828-3.4668Q9.56055-3.4668 9.77051-3.67676Q9.98047-3.88672 9.98047-4.20898L9.98047-6.32812L12.0898-6.32812Q12.4219-6.32812 12.627-6.52832Q12.832-6.72852 12.832-7.05078Q12.832-7.38281 12.627-7.58789Q12.4219-7.79297 12.0898-7.79297L9.98047-7.79297L9.98047-9.90234Q9.98047-10.2344 9.77051-10.4443Q9.56055-10.6543 9.23828-10.6543Q8.90625-10.6543 8.71094-10.4443Q8.51562-10.2344 8.51562-9.90234L8.51562-7.79297L6.40625-7.79297Q6.06445-7.79297 5.85938-7.58789Q5.6543-7.38281 5.6543-7.05078Z"/>
  </g>
  <g transform="matrix(1 0 0 1 281.867 1933)">
   <path d="M11.709 2.91016Q13.75 2.91016 15.5518 2.12891Q17.3535 1.34766 18.7305-0.0292969Q20.1074-1.40625 20.8887-3.20801Q21.6699-5.00977 21.6699-7.05078Q21.6699-9.0918 20.8887-10.8936Q20.1074-12.6953 18.7305-14.0723Q17.3535-15.4492 15.5469-16.2305Q13.7402-17.0117 11.6992-17.0117Q9.6582-17.0117 7.85645-16.2305Q6.05469-15.4492 4.68262-14.0723Q3.31055-12.6953 2.5293-10.8936Q1.74805-9.0918 1.74805-7.05078Q1.74805-5.00977 2.5293-3.20801Q3.31055-1.40625 4.6875-0.0292969Q6.06445 1.34766 7.86621 2.12891Q9.66797 2.91016 11.709 2.91016ZM11.709 1.25Q9.98047 1.25 8.47656 0.605469Q6.97266-0.0390625 5.83496-1.17676Q4.69727-2.31445 4.05762-3.81836Q3.41797-5.32227 3.41797-7.05078Q3.41797-8.7793 4.05762-10.2832Q4.69727-11.7871 5.83008-12.9297Q6.96289-14.0723 8.4668-14.7119Q9.9707-15.3516 11.6992-15.3516Q13.4277-15.3516 14.9316-14.7119Q16.4355-14.0723 17.5781-12.9297Q18.7207-11.7871 19.3652-10.2832Q20.0098-8.7793 20.0098-7.05078Q20.0098-5.32227 19.3701-3.81836Q18.7305-2.31445 17.5928-1.17676Q16.4551-0.0390625 14.9463 0.605469Q13.4375 1.25 11.709 1.25ZM7.17773-7.05078Q7.17773-6.69922 7.41211-6.47461Q7.64648-6.25 8.01758-6.25L10.8887-6.25L10.8887-3.36914Q10.8887-2.99805 11.1133-2.76855Q11.3379-2.53906 11.6895-2.53906Q12.0605-2.53906 12.29-2.76855Q12.5195-2.99805 12.5195-3.36914L12.5195-6.25L15.4004-6.25Q15.7715-6.25 16.001-6.47461Q16.2305-6.69922 16.2305-7.05078Q16.2305-7.42188 16.001-7.65137Q15.7715-7.88086 15.4004-7.88086L12.5195-7.88086L12.5195-10.752Q12.5195-11.1328 12.29-11.3623Q12.0605-11.5918 11.6895-11.5918Q11.3379-11.5918 11.1133-11.3574Q10.8887-11.123 10.8887-10.752L10.8887-7.88086L8.01758-7.88086Q7.63672-7.88086 7.40723-7.65137Q7.17773-7.42188 7.17773-7.05078Z"/>
  </g>
  <g transform="matrix(1 0 0 1 305.646 1933)">
   <path d="M14.9707 5.66406Q17.0605 5.66406 18.96 5.01465Q20.8594 4.36523 22.4512 3.19336Q24.043 2.02148 25.2197 0.429688Q26.3965-1.16211 27.0459-3.06641Q27.6953-4.9707 27.6953-7.05078Q27.6953-9.14062 27.0459-11.04Q26.3965-12.9395 25.2197-14.5312Q24.043-16.123 22.4512-17.2998Q20.8594-18.4766 18.9551-19.126Q17.0508-19.7754 14.9609-19.7754Q12.8711-19.7754 10.9717-19.126Q9.07227-18.4766 7.48535-17.2998Q5.89844-16.123 4.72168-14.5312Q3.54492-12.9395 2.90039-11.04Q2.25586-9.14062 2.25586-7.05078Q2.25586-4.9707 2.90527-3.06641Q3.55469-1.16211 4.72656 0.429688Q5.89844 2.02148 7.49023 3.19336Q9.08203 4.36523 10.9814 5.01465Q12.8809 5.66406 14.9707 5.66406ZM14.9707 3.84766Q13.1641 3.84766 11.5283 3.2959Q9.89258 2.74414 8.53516 1.74805Q7.17773 0.751953 6.17676-0.610352Q5.17578-1.97266 4.62891-3.6084Q4.08203-5.24414 4.08203-7.05078Q4.08203-8.86719 4.62891-10.5029Q5.17578-12.1387 6.17188-13.501Q7.16797-14.8633 8.52539-15.8594Q9.88281-16.8555 11.5186-17.4023Q13.1543-17.9492 14.9609-17.9492Q16.7773-17.9492 18.4131-17.4023Q20.0488-16.8555 21.4111-15.8594Q22.7734-14.8633 23.7695-13.501Q24.7656-12.1387 25.3174-10.5029Q25.8691-8.86719 25.8691-7.05078Q25.8789-5.24414 25.332-3.6084Q24.7852-1.97266 23.7842-0.610352Q22.7832 0.751953 21.4209 1.74805Q20.0586 2.74414 18.4229 3.2959Q16.7871 3.84766 14.9707 3.84766ZM9.19922-7.05078Q9.19922-6.66992 9.45801-6.4209Q9.7168-6.17188 10.1172-6.17188L14.0625-6.17188L14.0625-2.2168Q14.0625-1.81641 14.3115-1.55762Q14.5605-1.29883 14.9512-1.29883Q15.3516-1.29883 15.6104-1.55273Q15.8691-1.80664 15.8691-2.2168L15.8691-6.17188L19.8242-6.17188Q20.2246-6.17188 20.4785-6.4209Q20.7324-6.66992 20.7324-7.05078Q20.7324-7.46094 20.4785-7.71484Q20.2246-7.96875 19.8242-7.96875L15.8691-7.96875L15.8691-11.9141Q15.8691-12.3242 15.6104-12.583Q15.3516-12.8418 14.9512-12.8418Q14.5605-12.8418 14.3115-12.583Q14.0625-12.3242 14.0625-11.9141L14.0625-7.96875L10.1172-7.96875Q9.70703-7.96875 9.45312-7.71484Q9.19922-7.46094 9.19922-7.05078Z"/>
  </g>
  <text style="stroke:none;fill:black;font-family:sans-serif;font-size:13;font-weight:bold;" transform="matrix(1 0 0 1 263 1953)">Design Variations</text>
  <text style="stroke:none;fill:black;font-family:sans-serif;font-size:13;" transform="matrix(1 0 0 1 263 1971)">Symbols are supported in up to nine weights and three scales.</text>
  <text style="stroke:none;fill:black;font-family:sans-serif;font-size:13;" transform="matrix(1 0 0 1 263 1989)">For optimal layout with text and other symbols, vertically align</text>
  <text style="stroke:none;fill:black;font-family:sans-serif;font-size:13;" transform="matrix(1 0 0 1 263 2007)">symbols with the adjacent text.</text>
  <line style="fill:none;stroke:#00AEEF;stroke-width:0.5;opacity:1.0;" x1="776" x2="776" y1="1919" y2="1933"/>
  <g transform="matrix(1 0 0 1 776 1933)">
   <path d="M3.31055 0.15625Q3.70117 0.15625 3.91602-0.00976562Q4.13086-0.175781 4.26758-0.585938L5.52734-4.0332L11.2891-4.0332L12.5488-0.585938Q12.6855-0.175781 12.9004-0.00976562Q13.1152 0.15625 13.4961 0.15625Q13.8867 0.15625 14.1162-0.0585938Q14.3457-0.273438 14.3457-0.644531Q14.3457-0.869141 14.2383-1.17188L9.6582-13.3691Q9.48242-13.8184 9.17969-14.043Q8.87695-14.2676 8.4082-14.2676Q7.5-14.2676 7.17773-13.3789L2.59766-1.16211Q2.49023-0.859375 2.49023-0.634766Q2.49023-0.263672 2.70996-0.0537109Q2.92969 0.15625 3.31055 0.15625ZM6.00586-5.51758L8.37891-12.0898L8.42773-12.0898L10.8008-5.51758Z"/>
  </g>
  <line style="fill:none;stroke:#00AEEF;stroke-width:0.5;opacity:1.0;" x1="793.197" x2="793.197" y1="1919" y2="1933"/>
  <text style="stroke:none;fill:black;font-family:sans-serif;font-size:13;font-weight:bold;" transform="matrix(1 0 0 1 776 1953)">Margins</text>
  <text style="stroke:none;fill:black;font-family:sans-serif;font-size:13;" transform="matrix(1 0 0 1 776 1971)">Leading and trailing margins on the left and right side of each symbol</text>
  <text style="stroke:none;fill:black;font-family:sans-serif;font-size:13;" transform="matrix(1 0 0 1 776 1989)">can be adjusted by modifying the x-location of the margin guidelines.</text>
  <text style="stroke:none;fill:black;font-family:sans-serif;font-size:13;" transform="matrix(1 0 0 1 776 2007)">Modifications are automatically applied proportionally to all</text>
  <text style="stroke:none;fill:black;font-family:sans-serif;font-size:13;" transform="matrix(1 0 0 1 776 2025)">scales and weights.</text>
  <g transform="matrix(1 0 0 1 1289 1933)">
   <path d="M2.8418 1.86523L4.54102 3.57422Q5.18555 4.22852 5.90332 4.17969Q6.62109 4.13086 7.31445 3.35938L18.0078-8.42773L17.041-9.4043L6.42578 2.27539Q6.16211 2.57812 5.89355 2.61719Q5.625 2.65625 5.27344 2.30469L4.10156 1.14258Q3.75 0.791016 3.79395 0.522461Q3.83789 0.253906 4.14062-0.0195312L15.6152-10.8203L14.6387-11.7871L3.04688-0.898438Q2.30469-0.214844 2.25098 0.498047Q2.19727 1.21094 2.8418 1.86523ZM9.25781-16.3281Q8.94531-16.0254 8.90625-15.6348Q8.86719-15.2441 9.04297-14.9512Q9.21875-14.6777 9.55566-14.541Q9.89258-14.4043 10.3809-14.5215Q11.4746-14.7754 12.5977-14.7314Q13.7207-14.6875 14.7949-13.9844L14.209-12.5293Q13.9551-11.9043 14.0674-11.4404Q14.1797-10.9766 14.5801-10.5664L16.875-8.25195Q17.2363-7.88086 17.5781-7.82227Q17.9199-7.76367 18.3398-7.8418L19.4043-8.03711L20.0684-7.36328L20.0293-6.80664Q20-6.43555 20.1221-6.12305Q20.2441-5.81055 20.6055-5.44922L21.3672-4.70703Q21.7285-4.3457 22.1533-4.33105Q22.5781-4.31641 22.9297-4.66797L25.8398-7.58789Q26.1914-7.93945 26.1816-8.35449Q26.1719-8.76953 25.8105-9.13086L25.0391-9.89258Q24.6875-10.2539 24.3799-10.3857Q24.0723-10.5176 23.7109-10.4883L23.1348-10.4395L22.4902-11.0742L22.7344-12.1973Q22.832-12.6172 22.6953-12.9834Q22.5586-13.3496 22.1191-13.7891L19.9219-15.9766Q18.6719-17.2168 17.2607-17.8369Q15.8496-18.457 14.4189-18.4814Q12.9883-18.5059 11.665-17.959Q10.3418-17.4121 9.25781-16.3281ZM10.752-15.957Q11.6602-16.6211 12.7002-16.9043Q13.7402-17.1875 14.8047-17.085Q15.8691-16.9824 16.8701-16.5137Q17.8711-16.0449 18.7012-15.2051L21.1328-12.793Q21.3086-12.6172 21.3525-12.4512Q21.3965-12.2852 21.3379-12.0312L21.0156-10.5469L22.5195-9.0625L23.5059-9.12109Q23.6914-9.13086 23.7891-9.09668Q23.8867-9.0625 24.0332-8.91602L24.6094-8.33984L22.168-5.89844L21.5918-6.47461Q21.4453-6.62109 21.4062-6.71875Q21.3672-6.81641 21.377-7.01172L21.4453-7.98828L19.9512-9.47266L18.4277-9.21875Q18.1836-9.16992 18.042-9.2041Q17.9004-9.23828 17.7148-9.41406L15.7129-11.416Q15.5176-11.5918 15.4932-11.7529Q15.4688-11.9141 15.5859-12.1875L16.4648-14.2773Q15.293-15.3711 13.8281-15.791Q12.3633-16.2109 10.8398-15.7617Q10.7227-15.7324 10.6885-15.8057Q10.6543-15.8789 10.752-15.957Z"/>
  </g>
  <text style="stroke:none;fill:black;font-family:sans-serif;font-size:13;font-weight:bold;" transform="matrix(1 0 0 1 1289 1953)">Exporting</text>
  <text style="stroke:none;fill:black;font-family:sans-serif;font-size:13;" transform="matrix(1 0 0 1 1289 1971)">Symbols should be outlined when exporting to ensure the</text>
  <text style="stroke:none;fill:black;font-family:sans-serif;font-size:13;" transform="matrix(1 0 0 1 1289 1989)">design is preserved when submitting to Xcode.</text>
  <text id="template-version" style="stroke:none;fill:black;font-family:sans-serif;font-size:13;text-anchor:end;" transform="matrix(1 0 0 1 3036 1933)">Template v.3.0</text>
  <text style="stroke:none;fill:black;font-family:sans-serif;font-size:13;text-anchor:end;" transform="matrix(1 0 0 1 3036 1951)">Requires Xcode 13 or greater</text>
  <text id="descriptive-name" style="stroke:none;fill:black;font-family:sans-serif;font-size:13;text-anchor:end;" transform="matrix(1 0 0 1 3036 1969)">Generated from trash.slash.circle</text>
  <text style="stroke:none;fill:black;font-family:sans-serif;font-size:13;text-anchor:end;" transform="matrix(1 0 0 1 3036 1987)">Typeset at 100 points</text>
  <text style="stroke:none;fill:black;font-family:sans-serif;font-size:13;" transform="matrix(1 0 0 1 263 726)">Small</text>
  <text style="stroke:none;fill:black;font-family:sans-serif;font-size:13;" transform="matrix(1 0 0 1 263 1156)">Medium</text>
  <text style="stroke:none;fill:black;font-family:sans-serif;font-size:13;" transform="matrix(1 0 0 1 263 1586)">Large</text>
 </g>
 <g id="Guides">
  <g id="H-reference" style="fill:#27AAE1;stroke:none;" transform="matrix(1 0 0 1 339 696)">
   <path d="M0.976562 0L3.66211 0L29.3457-67.1387L30.0293-67.1387L30.0293-70.459L28.125-70.459ZM11.6699-24.4629L46.9727-24.4629L46.2402-26.709L12.4512-26.709ZM55.127 0L57.7637 0L30.6152-70.459L29.4434-70.459L29.4434-67.1387Z"/>
  </g>
  <line id="Baseline-S" style="fill:none;stroke:#27AAE1;opacity:1;stroke-width:0.5;" x1="263" x2="3036" y1="696" y2="696"/>
  <line id="Capline-S" style="fill:none;stroke:#27AAE1;opacity:1;stroke-width:0.5;" x1="263" x2="3036" y1="625.541" y2="625.541"/>
  <g id="H-reference" style="fill:#27AAE1;stroke:none;" transform="matrix(1 0 0 1 339 1126)">
   <path d="M0.976562 0L3.66211 0L29.3457-67.1387L30.0293-67.1387L30.0293-70.459L28.125-70.459ZM11.6699-24.4629L46.9727-24.4629L46.2402-26.709L12.4512-26.709ZM55.127 0L57.7637 0L30.6152-70.459L29.4434-70.459L29.4434-67.1387Z"/>
  </g>
  <line id="Baseline-M" style="fill:none;stroke:#27AAE1;opacity:1;stroke-width:0.5;" x1="263" x2="3036" y1="1126" y2="1126"/>
  <line id="Capline-M" style="fill:none;stroke:#27AAE1;opacity:1;stroke-width:0.5;" x1="263" x2="3036" y1="1055.54" y2="1055.54"/>
  <g id="H-reference" style="fill:#27AAE1;stroke:none;" transform="matrix(1 0 0 1 339 1556)">
   <path d="M0.976562 0L3.66211 0L29.3457-67.1387L30.0293-67.1387L30.0293-70.459L28.125-70.459ZM11.6699-24.4629L46.9727-24.4629L46.2402-26.709L12.4512-26.709ZM55.127 0L57.7637 0L30.6152-70.459L29.4434-70.459L29.4434-67.1387Z"/>
  </g>
  <line id="Baseline-L" style="fill:none;stroke:#27AAE1;opacity:1;stroke-width:0.5;" x1="263" x2="3036" y1="1556" y2="1556"/>
  <line id="Capline-L" style="fill:none;stroke:#27AAE1;opacity:1;stroke-width:0.5;" x1="263" x2="3036" y1="1485.54" y2="1485.54"/>
  <line id="left-margin-Regular-M" style="fill:none;stroke:#00AEEF;stroke-width:0.5;opacity:1.0;" x1="1391.3" x2="1391.3" y1="1030.79" y2="1150.12"/>
  <line id="right-margin-Regular-M" style="fill:none;stroke:#00AEEF;stroke-width:0.5;opacity:1.0;" x1="1508.39" x2="1508.39" y1="1030.79" y2="1150.12"/>
 </g>
 <g id="Symbols">
  <g id="Black-L" transform="matrix(1 0 0 1 2854.05 1556)">
   <path d="M79.3457 32.8613Q90.5762 32.8613 100.757 29.3945Q110.938 25.9277 119.458 19.6777Q127.979 13.4277 134.229 4.90723Q140.479-3.61328 143.945-13.7939Q147.412-23.9746 147.412-35.2051Q147.412-46.4355 143.945-56.6162Q140.479-66.7969 134.204-75.3174Q127.93-83.8379 119.434-90.1123Q110.938-96.3867 100.732-99.8291Q90.5273-103.271 79.2969-103.271Q68.1152-103.271 57.9102-99.8291Q47.7051-96.3867 39.209-90.1123Q30.7129-83.8379 24.4385-75.3174Q18.1641-66.7969 14.7217-56.6162Q11.2793-46.4355 11.2793-35.2051Q11.2793-23.9746 14.7217-13.7939Q18.1641-3.61328 24.4385 4.90723Q30.7129 13.4277 39.2334 19.6777Q47.7539 25.9277 57.9346 29.3945Q68.1152 32.8613 79.3457 32.8613ZM79.3457 12.4023Q71.4355 12.4023 64.2822 10.0098Q57.1289 7.61719 51.1963 3.24707Q45.2637-1.12305 40.8936-7.08008Q36.5234-13.0371 34.1309-20.166Q31.7383-27.2949 31.7383-35.2051Q31.7383-43.1152 34.1309-50.2686Q36.5234-57.4219 40.8936-63.3545Q45.2637-69.2871 51.1963-73.6572Q57.1289-78.0273 64.2578-80.4199Q71.3867-82.8125 79.2969-82.8125Q87.207-82.8125 94.3604-80.4199Q101.514-78.0273 107.471-73.6572Q113.428-69.2871 117.798-63.3545Q122.168-57.4219 124.561-50.2686Q126.953-43.1152 126.953-35.2051Q126.953-27.2949 124.561-20.166Q122.168-13.0371 117.798-7.08008Q113.428-1.12305 107.495 3.24707Q101.562 7.61719 94.4092 10.0098Q87.2559 12.4023 79.3457 12.4023ZM66.0645-1.17188L92.4805-1.17188Q94.2383-1.17188 95.6299-1.53809Q97.0215-1.9043 98.0469-2.73438L98.3887-2.97852L90.332-11.0352L90.2344-10.9375Q90.0391-10.4492 89.3066-10.4492Q86.7676-10.4492 86.7676-12.9395L86.8164-14.5508L81.8359-19.5312L81.8359-12.8906Q81.8359-10.4492 79.3457-10.4492Q76.8066-10.4492 76.8066-12.8906L76.8066-24.5605L71.3867-29.9805L71.8262-12.9395Q71.875-11.8164 71.167-11.1328Q70.459-10.4492 69.2871-10.4492Q66.8945-10.4492 66.7969-12.8906L66.2109-35.1562L55.7617-45.5566L57.4219-9.22852Q57.5684-5.17578 59.79-3.17383Q62.0117-1.17188 66.0645-1.17188ZM103.223-6.10352Q104.443-4.93164 106.152-4.90723Q107.861-4.88281 109.082-6.15234Q110.303-7.32422 110.303-9.05762Q110.303-10.791 109.082-12.0605L55.7617-65.332Q54.541-66.5527 52.7832-66.5527Q51.0254-66.5527 49.8047-65.332Q48.584-64.1602 48.584-62.4268Q48.584-60.6934 49.8047-59.4238ZM102.051-27.0996L103.174-51.5137L106.396-51.5137Q108.203-51.5137 109.399-52.6367Q110.596-53.7598 110.596-55.5664Q110.645-57.3242 109.424-58.4229Q108.203-59.5215 106.396-59.5215L94.7266-59.5215L94.7266-62.4512Q94.7266-66.748 91.9189-69.2383Q89.1113-71.7285 83.9355-71.7285L74.6094-71.7285Q70.7031-71.7285 68.1396-70.2148Q65.5762-68.7012 64.6973-65.918Q64.5508-65.6738 64.4531-65.3809Q64.3555-65.0879 64.2578-64.7949L64.2578-64.7949L78.9062-50.1953L78.9062-50.1953Q79.0527-50.1953 79.3457-50.1953Q81.8359-50.1953 81.8359-47.8027L81.8359-47.2168L87.5977-41.6016L87.6953-45.166Q87.793-47.7051 90.2344-47.7051Q92.6758-47.7051 92.6758-45.0684L92.4805-36.6699ZM72.0703-59.5215L72.1191-62.5Q72.168-63.4766 72.876-64.1357Q73.584-64.7949 74.6582-64.7949L83.9844-64.7949Q85.1074-64.7949 85.791-64.1357Q86.4746-63.4766 86.5234-62.5L86.5723-59.5215Z"/>
  </g>
  <g id="Heavy-L" transform="matrix(1 0 0 1 2558.39 1556)">
   <path d="M78.2715 31.7871Q89.3555 31.7871 99.3652 28.3691Q109.375 24.9512 117.749 18.7988Q126.123 12.6465 132.3 4.24805Q138.477-4.15039 141.895-14.1602Q145.312-24.1699 145.312-35.2051Q145.312-46.2402 141.895-56.2744Q138.477-66.3086 132.3-74.6826Q126.123-83.0566 117.749-89.2578Q109.375-95.459 99.3408-98.8525Q89.3066-102.246 78.2227-102.246Q67.2363-102.246 57.2021-98.8525Q47.168-95.459 38.7939-89.2578Q30.4199-83.0566 24.2432-74.6826Q18.0664-66.3086 14.6729-56.2744Q11.2793-46.2402 11.2793-35.2051Q11.2793-24.1699 14.6729-14.1602Q18.0664-4.15039 24.2432 4.24805Q30.4199 12.6465 38.8184 18.7988Q47.2168 24.9512 57.2266 28.3691Q67.2363 31.7871 78.2715 31.7871ZM78.2715 14.0137Q70.1172 14.0137 62.7197 11.5479Q55.3223 9.08203 49.1943 4.56543Q43.0664 0.0488281 38.5498-6.12793Q34.0332-12.3047 31.543-19.6777Q29.0527-27.0508 29.0527-35.2051Q29.0527-43.4082 31.543-50.8057Q34.0332-58.2031 38.5254-64.3311Q43.0176-70.459 49.1699-74.9756Q55.3223-79.4922 62.6953-81.9824Q70.0684-84.4727 78.2227-84.4727Q86.4258-84.4727 93.8232-81.9824Q101.221-79.4922 107.373-74.9756Q113.525-70.459 118.042-64.3311Q122.559-58.2031 125.049-50.8057Q127.539-43.4082 127.539-35.2051Q127.539-27.0508 125.049-19.6777Q122.559-12.3047 118.042-6.12793Q113.525 0.0488281 107.397 4.56543Q101.27 9.08203 93.8721 11.5479Q86.4746 14.0137 78.2715 14.0137ZM64.3066-0.439453L92.1387-0.439453Q94.043-0.439453 95.4834-0.976562Q96.9238-1.51367 97.8516-2.58789L98.1445-2.97852L89.6973-11.4258L89.5508-10.5957Q89.3555-9.86328 88.3789-9.86328Q85.9375-9.86328 85.9375-12.2559L86.084-15.0879L80.6641-20.459L80.6641-12.207Q80.6641-9.86328 78.2227-9.86328Q75.7812-9.86328 75.7812-12.207L75.7812-25.3418L69.873-31.25L70.459-12.2559Q70.5078-11.1816 69.8486-10.5225Q69.1895-9.86328 68.0176-9.86328Q65.7227-9.86328 65.625-12.1582L64.8926-36.2793L54.3457-46.7773L56.1035-8.1543Q56.25-4.3457 58.374-2.39258Q60.498-0.439453 64.3066-0.439453ZM103.174-5.46875Q104.297-4.39453 105.859-4.39453Q107.422-4.39453 108.545-5.51758Q109.619-6.64062 109.619-8.20312Q109.619-9.76562 108.545-10.9375L53.7598-65.6738Q52.6367-66.748 51.0498-66.748Q49.4629-66.748 48.3398-65.6738Q47.2168-64.5508 47.2168-62.9883Q47.2168-61.4258 48.3398-60.2539ZM101.27-25.7812L102.49-52.4414L106.201-52.4414Q107.812-52.4414 108.887-53.4668Q109.961-54.4922 109.961-56.1035Q110.01-57.7148 108.911-58.7158Q107.812-59.7168 106.201-59.7168L93.6035-59.7168L93.6035-63.2324Q93.6035-67.3828 90.8936-69.7998Q88.1836-72.2168 83.3008-72.2168L73.1445-72.2168Q69.1895-72.2168 66.6992-70.5322Q64.209-68.8477 63.5254-65.8691Q63.4277-65.5273 63.3545-65.1123Q63.2812-64.6973 63.1836-64.3066L62.6465-64.3066L77.6367-49.3652L77.6367-49.8535Q77.832-50 78.2227-50Q80.6641-50 80.6641-47.7051L80.6641-46.2891L86.8164-40.2832L87.0117-45.7031Q87.0605-48.0957 89.4531-48.0957Q91.8457-48.0957 91.8457-45.6055L91.5039-35.5469ZM70.5078-59.7168L70.5078-63.1836Q70.5566-64.2578 71.3135-64.9414Q72.0703-65.625 73.1934-65.625L83.252-65.625Q84.4238-65.625 85.1807-64.9414Q85.9375-64.2578 85.9375-63.1836L85.9863-59.7168Z"/>
  </g>
  <g id="Bold-L" transform="matrix(1 0 0 1 2262.85 1556)">
   <path d="M77.0996 30.6152Q87.9395 30.6152 97.7783 27.2461Q107.617 23.877 115.869 17.8223Q124.121 11.7676 130.176 3.51562Q136.23-4.73633 139.6-14.5752Q142.969-24.4141 142.969-35.2539Q142.969-46.0938 139.6-55.9326Q136.23-65.7715 130.151-73.999Q124.072-82.2266 115.845-88.3057Q107.617-94.3848 97.7539-97.7295Q87.8906-101.074 77.0508-101.074Q66.2598-101.074 56.3965-97.7295Q46.5332-94.3848 38.3301-88.3057Q30.127-82.2266 24.0479-73.999Q17.9688-65.7715 14.624-55.9326Q11.2793-46.0938 11.2793-35.2539Q11.2793-24.4141 14.624-14.5752Q17.9688-4.73633 24.0479 3.51562Q30.127 11.7676 38.3545 17.8223Q46.582 23.877 56.4209 27.2461Q66.2598 30.6152 77.0996 30.6152ZM77.0996 15.8203Q68.6523 15.8203 60.9863 13.2568Q53.3203 10.6934 46.9482 6.00586Q40.5762 1.31836 35.8887-5.07812Q31.2012-11.4746 28.6377-19.1162Q26.0742-26.7578 26.0742-35.2539Q26.0742-43.75 28.6377-51.416Q31.2012-59.082 35.8887-65.4541Q40.5762-71.8262 46.9238-76.4893Q53.2715-81.1523 60.9375-83.7158Q68.6035-86.2793 77.0508-86.2793Q85.5469-86.2793 93.2129-83.7158Q100.879-81.1523 107.275-76.4893Q113.672-71.8262 118.335-65.4541Q122.998-59.082 125.586-51.416Q128.174-43.75 128.174-35.2539Q128.174-26.7578 125.61-19.1162Q123.047-11.4746 118.359-5.07812Q113.672 1.31836 107.3 6.00586Q100.928 10.6934 93.2617 13.2568Q85.5957 15.8203 77.0996 15.8203ZM62.4023 0.341797L91.7969 0.341797Q93.7988 0.341797 95.3369-0.390625Q96.875-1.12305 97.6562-2.44141L97.9004-3.02734L89.0137-11.8652L88.8184-10.2539Q88.623-9.17969 87.3535-9.17969Q85.0586-9.17969 85.0586-11.4746L85.2539-15.6738L79.3945-21.5332L79.3945-11.4258Q79.3945-9.17969 77.0508-9.17969Q74.707-9.17969 74.707-11.4258L74.707-26.2207L68.2129-32.7148L68.9453-11.4746Q68.9941-10.4492 68.3838-9.81445Q67.7734-9.17969 66.6504-9.17969Q64.4531-9.17969 64.4043-11.377L63.4277-37.5488L52.7832-48.1445L54.6387-6.98242Q54.7852-3.41797 56.8115-1.53809Q58.8379 0.341797 62.4023 0.341797ZM103.174-4.83398Q104.199-3.85742 105.566-3.85742Q106.934-3.85742 107.91-4.88281Q108.936-5.85938 108.936-7.25098Q108.936-8.64258 107.91-9.66797L51.5625-66.0156Q50.5371-67.041 49.1211-67.041Q47.7051-67.041 46.7285-66.0156Q45.7031-65.0391 45.7275-63.6475Q45.752-62.2559 46.7285-61.2305ZM100.391-24.3164L101.758-53.5156L105.957-53.5156Q107.373-53.5156 108.35-54.4434Q109.326-55.3711 109.326-56.7383Q109.375-58.1543 108.374-59.0576Q107.373-59.9609 105.957-59.9609L92.3828-59.9609L92.3828-64.0625Q92.3828-68.0664 89.7949-70.4346Q87.207-72.8027 82.6172-72.8027L71.4844-72.8027Q67.5781-72.8027 65.1367-70.9229Q62.6953-69.043 62.2559-65.8203Q62.1582-65.332 62.1094-64.8193Q62.0605-64.3066 62.0117-63.8184L60.8398-63.8184L76.2695-48.3887L76.2695-49.4629Q76.4648-49.8047 77.0508-49.8047Q79.3945-49.8047 79.3945-47.5586L79.3945-45.2637L85.9375-38.8184L86.2305-46.2891Q86.3281-48.5352 88.623-48.5352Q90.918-48.5352 90.918-46.1914L90.4297-34.2773ZM68.75-59.9609L68.75-63.9648Q68.7988-65.0879 69.6045-65.8203Q70.4102-66.5527 71.6309-66.5527L82.4707-66.5527Q83.7402-66.5527 84.5215-65.8203Q85.3027-65.0879 85.3516-63.9648L85.3516-59.9609Z"/>
  </g>
  <g id="Semibold-L" transform="matrix(1 0 0 1 1966.97 1556)">
   <path d="M76.2695 29.7852Q86.9629 29.7852 96.6797 26.4648Q106.396 23.1445 114.551 17.1631Q122.705 11.1816 128.687 3.02734Q134.668-5.12695 137.988-14.8438Q141.309-24.5605 141.309-35.2539Q141.309-45.9473 137.988-55.6641Q134.668-65.3809 128.662-73.5107Q122.656-81.6406 114.526-87.6465Q106.396-93.6523 96.6553-96.9727Q86.9141-100.293 76.2207-100.293Q65.5273-100.293 55.8105-96.9727Q46.0938-93.6523 37.9883-87.6465Q29.8828-81.6406 23.877-73.5107Q17.8711-65.3809 14.5752-55.6641Q11.2793-45.9473 11.2793-35.2539Q11.2793-24.5605 14.5996-14.8438Q17.9199-5.12695 23.9014 3.02734Q29.8828 11.1816 38.0127 17.1631Q46.1426 23.1445 55.8594 26.4648Q65.5762 29.7852 76.2695 29.7852ZM76.2695 17.041Q67.627 17.041 59.7656 14.4043Q51.9043 11.7676 45.3857 6.98242Q38.8672 2.19727 34.0576-4.3457Q29.248-10.8887 26.6357-18.7256Q24.0234-26.5625 24.0234-35.2539Q24.0234-43.9453 26.6357-51.8066Q29.248-59.668 34.0332-66.1865Q38.8184-72.7051 45.3369-77.4902Q51.8555-82.2754 59.7168-84.9121Q67.5781-87.5488 76.2207-87.5488Q84.9609-87.5488 92.7979-84.9121Q100.635-82.2754 107.178-77.4902Q113.721-72.7051 118.506-66.1865Q123.291-59.668 125.928-51.8066Q128.564-43.9453 128.564-35.2539Q128.613-26.5625 126.001-18.7256Q123.389-10.8887 118.579-4.3457Q113.77 2.19727 107.227 6.98242Q100.684 11.7676 92.8467 14.4043Q85.0098 17.041 76.2695 17.041ZM61.084 0.878906L91.5527 0.878906Q93.6523 0.878906 95.2393 0.0244141Q96.8262-0.830078 97.5586-2.29492L97.7539-3.02734L88.5742-12.1582L88.3301-9.96094Q88.0859-8.74023 86.6699-8.74023Q84.4238-8.74023 84.4727-10.8887L84.668-16.0645L78.5156-22.2168L78.5156-10.8887Q78.5156-8.74023 76.2207-8.74023Q73.9258-8.74023 73.9258-10.8887L73.9258-26.8066L67.0898-33.6914L67.9199-10.8887Q67.9688-9.91211 67.3828-9.32617Q66.7969-8.74023 65.7227-8.74023Q63.5742-8.74023 63.5254-10.8398L62.4023-38.3789L51.709-49.0723L53.6621-6.15234Q53.7598-2.73438 55.7129-0.927734Q57.666 0.878906 61.084 0.878906ZM103.174-4.3457Q104.102-3.41797 105.371-3.44238Q106.641-3.4668 107.52-4.39453Q108.447-5.27344 108.447-6.54297Q108.447-7.8125 107.52-8.74023L50-66.2598Q49.1211-67.1875 47.8271-67.1875Q46.5332-67.1875 45.6543-66.2598Q44.6777-65.3809 44.7021-64.1113Q44.7266-62.8418 45.6543-61.8652ZM99.8047-23.291L101.221-54.1992L105.811-54.1992Q107.08-54.1992 107.959-55.0537Q108.838-55.9082 108.838-57.1777Q108.887-58.4473 107.983-59.2773Q107.08-60.1074 105.811-60.1074L91.5039-60.1074L91.5039-64.6484Q91.5039-68.5547 89.0137-70.8496Q86.5234-73.1445 82.1777-73.1445L70.3613-73.1445Q66.4062-73.1445 64.0137-71.167Q61.6211-69.1895 61.377-65.7715Q61.3281-65.1855 61.2793-64.5996Q61.2305-64.0137 61.2305-63.4277L59.6191-63.4277L75.293-47.7539L75.293-49.2188Q75.5371-49.6094 76.2207-49.6094Q78.5156-49.6094 78.5156-47.4609L78.5156-44.5312L85.3516-37.793L85.7422-46.6797Q85.791-48.8281 88.0371-48.8281Q90.2832-48.8281 90.2832-46.582L89.6973-33.3984ZM67.5293-60.1074L67.5293-64.4531Q67.5781-65.6738 68.4082-66.4307Q69.2383-67.1875 70.5078-67.1875L81.9336-67.1875Q83.252-67.1875 84.082-66.4307Q84.9121-65.6738 84.9121-64.4531L84.9121-60.1074Z"/>
  </g>
  <g id="Medium-L" transform="matrix(1 0 0 1 1670.87 1556)">
   <path d="M75.6836 29.1504Q86.2305 29.1504 95.8496 25.8545Q105.469 22.5586 113.55 16.626Q121.631 10.6934 127.563 2.63672Q133.496-5.41992 136.792-15.0635Q140.088-24.707 140.088-35.2539Q140.088-45.8496 136.792-55.4688Q133.496-65.0879 127.539-73.1445Q121.582-81.2012 113.525-87.1582Q105.469-93.1152 95.8252-96.3867Q86.1816-99.6582 75.6348-99.6582Q65.0391-99.6582 55.4199-96.3867Q45.8008-93.1152 37.7441-87.1582Q29.6875-81.2012 23.7549-73.1445Q17.8223-65.0879 14.5508-55.4688Q11.2793-45.8496 11.2793-35.2539Q11.2793-24.707 14.5508-15.0635Q17.8223-5.41992 23.7549 2.63672Q29.6875 10.6934 37.7686 16.626Q45.8496 22.5586 55.4688 25.8545Q65.0879 29.1504 75.6836 29.1504ZM75.6836 18.0176Q66.8457 18.0176 58.8379 15.332Q50.8301 12.6465 44.2139 7.76367Q37.5977 2.88086 32.6904-3.78418Q27.7832-10.4492 25.1221-18.4326Q22.4609-26.416 22.4609-35.2539Q22.4609-44.1406 25.1221-52.124Q27.7832-60.1074 32.666-66.748Q37.5488-73.3887 44.165-78.2715Q50.7812-83.1543 58.7891-85.8154Q66.7969-88.4766 75.6348-88.4766Q84.4727-88.4766 92.4805-85.8154Q100.488-83.1543 107.129-78.2715Q113.77-73.3887 118.652-66.748Q123.535-60.1074 126.221-52.124Q128.906-44.1406 128.906-35.2539Q128.955-26.416 126.294-18.4326Q123.633-10.4492 118.726-3.78418Q113.818 2.88086 107.178 7.76367Q100.537 12.6465 92.5293 15.332Q84.5215 18.0176 75.6836 18.0176ZM60.0586 1.31836L91.3086 1.31836Q93.5059 1.31836 95.1416 0.341797Q96.7773-0.634766 97.4121-2.19727L97.5586-3.02734L88.1348-12.4023L87.8906-9.76562Q87.6465-8.34961 86.084-8.34961Q83.9355-8.34961 83.9355-10.498L84.1797-16.3574L77.7832-22.7539L77.7832-10.498Q77.7832-8.34961 75.5371-8.34961Q73.291-8.34961 73.291-10.498L73.291-27.2949L66.1621-34.4238L67.0898-10.498Q67.1387-9.52148 66.5771-8.93555Q66.0156-8.34961 64.9414-8.34961Q62.8906-8.34961 62.8418-10.4004L61.5723-39.0625L50.8301-49.8047L52.832-5.51758Q52.9297-2.24609 54.834-0.463867Q56.7383 1.31836 60.0586 1.31836ZM103.125-4.00391Q104.004-3.125 105.176-3.14941Q106.348-3.17383 107.129-4.05273Q108.008-4.88281 108.008-6.05469Q108.008-7.22656 107.129-8.10547L48.8281-66.4551Q47.9492-67.334 46.7529-67.334Q45.5566-67.334 44.7266-66.4551Q43.8477-65.625 43.8721-64.4287Q43.8965-63.2324 44.7266-62.4023ZM99.3164-22.5098L100.781-54.7363L105.664-54.7363Q106.836-54.7363 107.642-55.542Q108.447-56.3477 108.447-57.4707Q108.496-58.6426 107.666-59.4238Q106.836-60.2051 105.664-60.2051L90.8203-60.2051L90.8203-65.0879Q90.8203-68.8965 88.3789-71.167Q85.9375-73.4375 81.7383-73.4375L69.4824-73.4375Q65.5273-73.4375 63.1592-71.3379Q60.791-69.2383 60.6445-65.7227Q60.5957-65.1367 60.5957-64.4775Q60.5957-63.8184 60.5469-63.1348L58.6426-63.1348L74.5117-47.2168L74.5117-48.9746Q74.8047-49.5117 75.5371-49.5117Q77.7832-49.5117 77.7832-47.4121L77.7832-43.9941L84.8633-37.0117L85.3027-46.9727Q85.3516-49.0723 87.5488-49.0723Q89.7949-49.0723 89.7461-46.875L89.0625-32.7637ZM66.5527-60.2051L66.6016-64.8438Q66.6016-66.1133 67.4561-66.8945Q68.3105-67.6758 69.6289-67.6758L81.4453-67.6758Q82.8125-67.6758 83.667-66.8945Q84.5215-66.1133 84.5703-64.8438L84.5703-60.2051Z"/>
  </g>
  <g id="Regular-L" transform="matrix(1 0 0 1 1374.97 1556)">
   <path d="M74.8535 28.3203Q85.3027 28.3203 94.7998 25.0732Q104.297 21.8262 112.256 15.9668Q120.215 10.1074 126.099 2.14844Q131.982-5.81055 135.229-15.332Q138.477-24.8535 138.477-35.2539Q138.477-45.7031 135.229-55.2002Q131.982-64.6973 126.099-72.6562Q120.215-80.6152 112.256-86.499Q104.297-92.3828 94.7754-95.6299Q85.2539-98.877 74.8047-98.877Q64.3555-98.877 54.8584-95.6299Q45.3613-92.3828 37.4268-86.499Q29.4922-80.6152 23.6084-72.6562Q17.7246-64.6973 14.502-55.2002Q11.2793-45.7031 11.2793-35.2539Q11.2793-24.8535 14.5264-15.332Q17.7734-5.81055 23.6328 2.14844Q29.4922 10.1074 37.4512 15.9668Q45.4102 21.8262 54.9072 25.0732Q64.4043 28.3203 74.8535 28.3203ZM74.8535 19.2383Q65.8203 19.2383 57.6416 16.4795Q49.4629 13.7207 42.6758 8.74023Q35.8887 3.75977 30.8838-3.05176Q25.8789-9.86328 23.1445-18.042Q20.4102-26.2207 20.4102-35.2539Q20.4102-44.3359 23.1445-52.5146Q25.8789-60.6934 30.8594-67.5049Q35.8398-74.3164 42.627-79.2969Q49.4141-84.2773 57.5928-87.0117Q65.7715-89.7461 74.8047-89.7461Q83.8867-89.7461 92.0654-87.0117Q100.244-84.2773 107.056-79.2969Q113.867-74.3164 118.848-67.5049Q123.828-60.6934 126.587-52.5146Q129.346-44.3359 129.346-35.2539Q129.395-26.2207 126.66-18.042Q123.926-9.86328 118.921-3.05176Q113.916 3.75977 107.104 8.74023Q100.293 13.7207 92.1143 16.4795Q83.9355 19.2383 74.8535 19.2383ZM58.7402 1.85547L91.0645 1.85547Q93.3594 1.85547 95.0439 0.756836Q96.7285-0.341797 97.2656-2.09961L97.4121-3.02734L87.6953-12.6953L87.4023-9.52148Q87.1582-7.91016 85.4004-7.91016Q83.3008-7.91016 83.3496-9.96094L83.6426-16.748L76.9043-23.4863L76.9043-9.96094Q76.9043-7.91016 74.707-7.91016Q72.5586-7.91016 72.5586-9.96094L72.5586-27.8809L65.0391-35.4004L66.0645-9.96094Q66.1133-9.0332 65.5762-8.47168Q65.0391-7.91016 64.0137-7.91016Q62.0117-7.91016 61.9629-9.86328L60.5957-39.8926L49.7559-50.7324L51.8555-4.6875Q51.9531-1.61133 53.7842 0.12207Q55.6152 1.85547 58.7402 1.85547ZM103.125-3.51562Q103.906-2.73438 104.956-2.75879Q106.006-2.7832 106.738-3.56445Q107.52-4.3457 107.52-5.39551Q107.52-6.44531 106.738-7.22656L47.3145-66.6992Q46.5332-67.4805 45.459-67.4805Q44.3848-67.4805 43.6523-66.6992Q42.8223-65.918 42.8467-64.8682Q42.8711-63.8184 43.6523-63.0371ZM98.7305-21.4844L100.293-55.4688L105.518-55.4688Q106.543-55.4688 107.275-56.2012Q108.008-56.9336 108.008-57.9102Q108.057-58.9355 107.3-59.6436Q106.543-60.3516 105.518-60.3516L89.9902-60.3516L89.9902-65.6738Q89.9902-69.3848 87.6221-71.6064Q85.2539-73.8281 81.2988-73.8281L68.3594-73.8281Q64.4043-73.8281 62.085-71.6064Q59.7656-69.3848 59.7656-65.6738Q59.7656-64.9902 59.7656-64.2578Q59.7656-63.5254 59.7656-62.793L57.4219-62.793L73.584-46.582L73.584-48.7305Q73.877-49.3652 74.707-49.3652Q76.9043-49.3652 76.9043-47.3145L76.9043-43.3105L84.2773-35.9863L84.7656-47.3633Q84.8145-49.3652 86.9629-49.3652Q89.1602-49.3652 89.1113-47.2656L88.3301-31.8848ZM65.3809-60.3516L65.3809-65.3809Q65.3809-66.6992 66.2842-67.5049Q67.1875-68.3105 68.5547-68.3105L80.9082-68.3105Q82.3242-68.3105 83.2275-67.5049Q84.1309-66.6992 84.1309-65.3809L84.1309-60.3516Z"/>
  </g>
  <g id="Light-L" transform="matrix(1 0 0 1 1079.18 1556)">
   <path d="M73.9258 27.3926Q84.2285 27.3926 93.6035 24.1943Q102.979 20.9961 110.815 15.2344Q118.652 9.47266 124.438 1.63574Q130.225-6.20117 133.423-15.5762Q136.621-24.9512 136.621-35.2539Q136.621-45.5566 133.423-54.9316Q130.225-64.3066 124.438-72.1436Q118.652-79.9805 110.815-85.7666Q102.979-91.5527 93.6035-94.751Q84.2285-97.9492 73.877-97.9492Q63.5742-97.9492 54.2236-94.751Q44.873-91.5527 37.0361-85.7666Q29.1992-79.9805 23.4131-72.1436Q17.627-64.3066 14.4531-54.9316Q11.2793-45.5566 11.2793-35.2539Q11.2793-24.9512 14.4775-15.5762Q17.6758-6.20117 23.4375 1.63574Q29.1992 9.47266 37.0361 15.2344Q44.873 20.9961 54.248 24.1943Q63.623 27.3926 73.9258 27.3926ZM73.9258 20.5078Q64.6973 20.5078 56.3232 17.6758Q47.9492 14.8438 40.9912 9.74121Q34.0332 4.63867 28.9307-2.31934Q23.8281-9.27734 21.0205-17.6514Q18.2129-26.0254 18.2129-35.2539Q18.2129-44.5312 21.0205-52.8809Q23.8281-61.2305 28.9307-68.2129Q34.0332-75.1953 40.9912-80.2979Q47.9492-85.4004 56.2988-88.208Q64.6484-91.0156 73.877-91.0156Q83.1543-91.0156 91.5283-88.208Q99.9023-85.4004 106.86-80.2979Q113.818-75.1953 118.945-68.2129Q124.072-61.2305 126.88-52.8809Q129.688-44.5312 129.688-35.2539Q129.736-26.0254 126.929-17.6514Q124.121-9.27734 118.994-2.31934Q113.867 4.63867 106.909 9.74121Q99.9512 14.8438 91.5771 17.6758Q83.2031 20.5078 73.9258 20.5078ZM58.0566 1.9043L90.0879 1.9043Q92.5293 1.9043 94.3359 0.512695Q96.1426-0.878906 96.5332-2.97852L96.6309-4.24805L86.5234-14.3066L86.1328-9.42383Q85.9375-7.86133 84.375-7.86133Q82.4707-7.86133 82.5195-9.76562L82.959-17.9199L75.7324-25.0977L75.7324-9.76562Q75.7324-7.91016 73.7793-7.91016Q71.8262-7.91016 71.8262-9.76562L71.8262-29.0527L63.7207-37.207L65.0391-9.76562Q65.0879-8.93555 64.624-8.39844Q64.1602-7.86133 63.2324-7.86133Q61.4746-7.86133 61.377-9.66797L59.6191-41.3574L48.9258-52.002L51.2207-4.58984Q51.3184-1.66016 53.1982 0.12207Q55.0781 1.9043 58.0566 1.9043ZM102.246-3.95508Q102.93-3.27148 103.833-3.2959Q104.736-3.32031 105.371-4.00391Q106.055-4.6875 106.055-5.59082Q106.055-6.49414 105.371-7.12891L45.8496-66.748Q45.2148-67.3828 44.2871-67.3828Q43.3594-67.3828 42.7246-66.748Q41.9922-66.0156 42.0166-65.1367Q42.041-64.2578 42.7246-63.5742ZM97.7051-20.2148L99.5117-56.6895L105.029-56.6895Q105.908-56.6895 106.567-57.2998Q107.227-57.9102 107.227-58.7891Q107.227-59.668 106.567-60.2783Q105.908-60.8887 105.029-60.8887L88.8672-60.8887L88.8672-66.5039Q88.8672-69.9219 86.6211-72.0459Q84.375-74.1699 80.6152-74.1699L67.4316-74.1699Q63.6719-74.1699 61.4502-72.0459Q59.2285-69.9219 59.2285-66.5039Q59.2285-65.5273 59.2285-64.4775Q59.2285-63.4277 59.2285-62.4512L55.5176-62.4512L72.4609-45.4102L72.4609-48.8281Q72.6562-49.7559 73.7793-49.7559Q75.7324-49.7559 75.7324-47.9004L75.7324-42.1387L83.5938-34.3262L84.2773-47.998Q84.375-49.7559 86.2793-49.7559Q88.3789-49.7559 88.2812-47.8516L87.2559-30.6641ZM63.8184-60.8887L63.8184-66.2598Q63.8184-67.7246 64.8438-68.6279Q65.8691-69.5312 67.4316-69.5312L80.2246-69.5312Q81.8359-69.5312 82.8613-68.6279Q83.8867-67.7246 83.8867-66.2598L83.8867-60.8887Z"/>
  </g>
  <g id="Thin-L" transform="matrix(1 0 0 1 783.693 1556)">
   <path d="M72.7051 26.1719Q82.8613 26.1719 92.041 23.0469Q101.221 19.9219 108.911 14.2822Q116.602 8.64258 122.266 0.952148Q127.93-6.73828 131.055-15.9424Q134.18-25.1465 134.18-35.2539Q134.18-45.4102 131.055-54.5898Q127.93-63.7695 122.29-71.46Q116.65-79.1504 108.936-84.8145Q101.221-90.4785 92.0166-93.6035Q82.8125-96.7285 72.7051-96.7285Q62.5488-96.7285 53.3691-93.6035Q44.1895-90.4785 36.499-84.8145Q28.8086-79.1504 23.1689-71.46Q17.5293-63.7695 14.4043-54.5898Q11.2793-45.4102 11.2793-35.2539Q11.2793-25.1465 14.4043-15.9424Q17.5293-6.73828 23.1689 0.952148Q28.8086 8.64258 36.5234 14.2822Q44.2383 19.9219 53.418 23.0469Q62.5977 26.1719 72.7051 26.1719ZM72.7051 22.168Q63.2324 22.168 54.6143 19.2627Q45.9961 16.3574 38.8184 11.084Q31.6406 5.81055 26.3428-1.36719Q21.0449-8.54492 18.1641-17.1631Q15.2832-25.7812 15.2832-35.2539Q15.2832-44.7754 18.1641-53.3936Q21.0449-62.0117 26.3428-69.1895Q31.6406-76.3672 38.8184-81.6406Q45.9961-86.9141 54.5898-89.8193Q63.1836-92.7246 72.7051-92.7246Q82.2266-92.7246 90.8203-89.8193Q99.4141-86.9141 106.616-81.6406Q113.818-76.3672 119.092-69.1895Q124.365-62.0117 127.271-53.3936Q130.176-44.7754 130.176-35.2539Q130.176-25.7812 127.271-17.1631Q124.365-8.54492 119.092-1.36719Q113.818 5.81055 106.641 11.084Q99.4629 16.3574 90.8447 19.2627Q82.2266 22.168 72.7051 22.168ZM57.1777 1.95312L88.7207 1.95312Q91.4062 1.95312 93.3594 0.219727Q95.3125-1.51367 95.5078-4.10156L95.5566-5.85938L85.0098-16.4551L84.4727-9.32617Q84.3262-7.86133 82.959-7.86133Q81.2988-7.86133 81.4453-9.52148L82.0312-19.4336L74.2188-27.1973L74.2188-9.52148Q74.2188-7.91016 72.5586-7.91016Q70.8496-7.91016 70.8496-9.52148L70.8496-30.6641L61.9141-39.5996L63.6719-9.52148Q63.7207-8.78906 63.3301-8.3252Q62.9395-7.86133 62.1094-7.86133Q60.7422-7.86133 60.5957-9.375L58.252-43.2617L47.8027-53.7109L50.3418-4.44336Q50.4395-1.70898 52.3926 0.12207Q54.3457 1.95312 57.1777 1.95312ZM101.074-4.54102Q101.611-4.05273 102.344-4.00391Q103.076-3.95508 103.613-4.54102Q104.102-5.12695 104.102-5.83496Q104.102-6.54297 103.613-7.03125L43.8965-66.748Q43.4082-67.2852 42.6758-67.2852Q41.9434-67.2852 41.4062-66.748Q40.8203-66.2109 40.8691-65.5029Q40.918-64.7949 41.4062-64.2578ZM96.3379-18.5059L98.3887-58.3008L104.395-58.3008Q105.078-58.3008 105.591-58.7891Q106.104-59.2773 106.104-59.9609Q106.104-60.6445 105.591-61.1328Q105.078-61.6211 104.395-61.6211L87.4023-61.6211L87.4023-67.627Q87.4023-70.6055 85.2783-72.6318Q83.1543-74.6582 79.6875-74.6582L66.1133-74.6582Q62.6465-74.6582 60.5713-72.6318Q58.4961-70.6055 58.4961-67.627Q58.4961-66.2109 58.4961-64.7705Q58.4961-63.3301 58.4961-61.9629L52.9297-61.9629L70.9961-43.7988L70.9961-48.9258Q71.0449-50.293 72.5586-50.293Q74.2188-50.293 74.2188-48.7305L74.2188-40.625L82.666-32.1777L83.6426-48.8281Q83.7402-50.293 85.4004-50.293Q87.2559-50.293 87.1582-48.6328L85.791-29.0527ZM61.7188-61.6211L61.7188-67.3828Q61.7188-69.043 62.8906-70.0928Q64.0625-71.1426 65.918-71.1426L79.2969-71.1426Q81.2012-71.1426 82.373-70.0928Q83.5449-69.043 83.5449-67.3828L83.5449-61.6211Z"/>
  </g>
  <g id="Ultralight-L" transform="matrix(1 0 0 1 487.592 1556)">
   <path d="M72.0703 25.5371Q82.1289 25.5371 91.2354 22.4609Q100.342 19.3848 107.935 13.7939Q115.527 8.20312 121.143 0.585938Q126.758-7.03125 129.858-16.1133Q132.959-25.1953 132.959-35.2539Q132.959-45.3125 129.858-54.4189Q126.758-63.5254 121.167-71.1182Q115.576-78.7109 107.959-84.3262Q100.342-89.9414 91.2354-93.0176Q82.1289-96.0938 72.0703-96.0938Q62.0605-96.0938 52.9541-93.0176Q43.8477-89.9414 36.2305-84.3262Q28.6133-78.7109 23.0225-71.1182Q17.4316-63.5254 14.3555-54.4189Q11.2793-45.3125 11.2793-35.2539Q11.2793-25.1953 14.3555-16.1133Q17.4316-7.03125 23.0225 0.585938Q28.6133 8.20312 36.2305 13.7939Q43.8477 19.3848 52.9541 22.4609Q62.0605 25.5371 72.0703 25.5371ZM72.0703 23.0469Q62.4512 23.0469 53.7109 20.0928Q44.9707 17.1387 37.6709 11.792Q30.3711 6.44531 25.0244-0.854492Q19.6777-8.1543 16.7236-16.8945Q13.7695-25.6348 13.7695-35.2539Q13.7695-44.9219 16.7236-53.6377Q19.6777-62.3535 25.0244-69.6533Q30.3711-76.9531 37.6953-82.3242Q45.0195-87.6953 53.7354-90.6494Q62.4512-93.6035 72.0703-93.6035Q81.7383-93.6035 90.4785-90.6494Q99.2188-87.6953 106.494-82.3242Q113.77-76.9531 119.141-69.6533Q124.512-62.3535 127.466-53.6377Q130.42-44.9219 130.42-35.2539Q130.371-25.6348 127.441-16.8945Q124.512-8.1543 119.141-0.854492Q113.77 6.44531 106.494 11.792Q99.2188 17.1387 90.4785 20.0928Q81.7383 23.0469 72.0703 23.0469ZM56.7383 2.00195L88.0859 2.00195Q90.8691 2.00195 92.8955 0.0488281Q94.9219-1.9043 95.0195-4.6875L95.0684-6.68945L84.2285-17.5781L83.6426-9.22852Q83.5449-7.8125 82.2754-7.8125Q80.7617-7.8125 80.9082-9.42383L81.5918-20.2148L73.4375-28.3203L73.4375-9.42383Q73.4375-7.91016 71.9238-7.91016Q70.4102-7.91016 70.4102-9.42383L70.4102-31.4453L61.0352-40.8691L62.9883-9.42383Q63.0371-8.69141 62.6953-8.25195Q62.3535-7.8125 61.6211-7.8125Q60.4004-7.8125 60.2539-9.22852L57.6172-44.2383L47.2656-54.5898L49.9023-4.3457Q50.0488-1.75781 52.0508 0.12207Q54.0527 2.00195 56.7383 2.00195ZM100.488-4.83398Q100.977-4.39453 101.611-4.37012Q102.246-4.3457 102.686-4.83398Q103.125-5.32227 103.125-5.95703Q103.125-6.5918 102.686-6.98242L42.9688-66.7969Q42.5293-67.2363 41.8945-67.2363Q41.2598-67.2363 40.8203-66.7969Q40.2832-66.2598 40.332-65.6738Q40.3809-65.0879 40.8203-64.6484ZM95.6543-17.627L97.9004-59.1309L104.053-59.1309Q104.688-59.1309 105.151-59.5215Q105.615-59.9121 105.615-60.5957Q105.566-61.1328 105.127-61.5479Q104.688-61.9629 104.053-61.9629L86.6699-61.9629L86.6699-68.1641Q86.6699-70.9961 84.6191-72.9248Q82.5684-74.8535 79.248-74.8535L65.5273-74.8535Q62.207-74.8535 60.1807-72.9248Q58.1543-70.9961 58.1543-68.1641Q58.1543-66.6016 58.1543-64.9414Q58.1543-63.2812 58.1543-61.7188L51.6602-61.7188L70.2637-43.0176L70.2637-48.9746Q70.2637-50.5859 71.9238-50.5859Q73.4375-50.5859 73.4375-49.1211L73.4375-39.7949L82.2266-31.0547L83.3496-49.2188Q83.4473-50.5859 84.9609-50.5859Q86.7676-50.5859 86.6211-49.0234L85.0586-28.2227ZM60.6934-61.9629L60.6934-67.9688Q60.6934-69.7266 61.9385-70.8252Q63.1836-71.9238 65.1855-71.9238L78.8574-71.9238Q80.9082-71.9238 82.1533-70.8252Q83.3984-69.7266 83.3984-67.9688L83.3984-61.9629Z"/>
  </g>
  <g id="Black-M" transform="matrix(1 0 0 1 2871.32 1126)">
   <path d="M62.0605 18.1152Q73.0957 18.1152 82.7637 13.9648Q92.4316 9.81445 99.7559 2.46582Q107.08-4.88281 111.255-14.5264Q115.43-24.1699 115.43-35.2051Q115.43-46.2402 111.255-55.8838Q107.08-65.5273 99.7559-72.876Q92.4316-80.2246 82.7637-84.375Q73.0957-88.5254 62.0605-88.5254Q51.0742-88.5254 41.4062-84.375Q31.7383-80.2246 24.3896-72.876Q17.041-65.5273 12.8906-55.8838Q8.74023-46.2402 8.74023-35.2051Q8.74023-24.1699 12.8906-14.5264Q17.041-4.88281 24.3896 2.46582Q31.7383 9.81445 41.4062 13.9648Q51.0742 18.1152 62.0605 18.1152ZM62.0605 0.732422Q54.6387 0.732422 48.1201-2.05078Q41.6016-4.83398 36.6455-9.76562Q31.6895-14.6973 28.9062-21.2158Q26.123-27.7344 26.123-35.2051Q26.123-42.6758 28.9062-49.1943Q31.6895-55.7129 36.6455-60.6445Q41.6016-65.5762 48.1201-68.3594Q54.6387-71.1426 62.0605-71.1426Q69.5312-71.1426 76.0498-68.3594Q82.5684-65.5762 87.5-60.6445Q92.4316-55.7129 95.2393-49.1943Q98.0469-42.6758 98.0469-35.2051Q98.0469-27.7344 95.2393-21.2158Q92.4316-14.6973 87.5-9.76562Q82.5684-4.83398 76.0498-2.05078Q69.5312 0.732422 62.0605 0.732422ZM52.5391-9.42383L71.6797-9.42383Q72.9492-9.42383 73.999-9.66797Q75.0488-9.91211 75.9277-10.4492L76.2207-10.6445L70.2148-16.6504L70.1172-16.6504Q69.9707-16.5039 69.7266-16.5039Q67.7246-16.5039 67.7246-18.5059L67.7246-19.1406L64.1113-22.8027L64.1113-18.457Q64.1113-16.5039 62.1582-16.5039Q60.1562-16.5039 60.1562-18.457L60.1562-26.709L56.2012-30.6641L56.543-18.5059Q56.6406-16.5039 54.541-16.5039Q52.6855-16.5039 52.5879-18.457L52.1484-34.7168L44.1895-42.627L45.459-15.9668Q45.6055-12.6953 47.4121-11.0596Q49.2188-9.42383 52.5391-9.42383ZM79.7363-13.3301Q80.7617-12.3535 82.1777-12.3535Q83.5938-12.3535 84.6191-13.3301Q85.5957-14.3555 85.5957-15.7715Q85.5957-17.1875 84.6191-18.2129L44.4824-58.3008Q43.5059-59.3262 42.041-59.3262Q40.5762-59.3262 39.5996-58.3008Q38.5742-57.3242 38.5742-55.8838Q38.5742-54.4434 39.5996-53.4668ZM79.4434-29.6387L80.3223-47.4609L82.4707-47.4609Q84.0332-47.4609 85.0098-48.3887Q85.9863-49.3164 85.9863-50.7812Q85.9863-52.2949 85.0098-53.1982Q84.0332-54.1016 82.4707-54.1016L74.0234-54.1016L74.0234-55.957Q74.0234-59.3262 71.8018-61.2549Q69.5801-63.1836 65.4297-63.1836L58.7891-63.1836Q55.8594-63.1836 53.8574-62.207Q51.8555-61.2305 50.9766-59.375Q50.8301-59.1309 50.7568-58.9111Q50.6836-58.6914 50.5859-58.4473L50.5859-58.4473L61.8652-47.168L61.8652-47.168Q61.9629-47.168 62.1582-47.168Q64.1113-47.168 64.1113-45.2637L64.1113-44.9219L68.3594-40.7227L68.4082-42.7246Q68.5059-44.6777 70.4102-44.6777Q72.3145-44.6777 72.3145-42.5781L72.2168-36.8652ZM56.6895-54.1016L56.7383-56.0547Q56.7871-56.8359 57.3486-57.3242Q57.9102-57.8125 58.7402-57.8125L65.4785-57.8125Q66.4062-57.8125 66.9189-57.3242Q67.4316-56.8359 67.4805-56.0547L67.5293-54.1016Z"/>
  </g>
  <g id="Heavy-M" transform="matrix(1 0 0 1 2575.43 1126)">
   <path d="M61.2305 17.2852Q72.0703 17.2852 81.5918 13.1836Q91.1133 9.08203 98.3154 1.85547Q105.518-5.37109 109.644-14.8682Q113.77-24.3652 113.77-35.2051Q113.77-46.0449 109.644-55.542Q105.518-65.0391 98.3154-72.29Q91.1133-79.541 81.5918-83.6182Q72.0703-87.6953 61.2305-87.6953Q50.4395-87.6953 40.918-83.6182Q31.3965-79.541 24.1699-72.29Q16.9434-65.0391 12.8418-55.542Q8.74023-46.0449 8.74023-35.2051Q8.74023-24.3652 12.8418-14.8682Q16.9434-5.37109 24.1699 1.85547Q31.3965 9.08203 40.918 13.1836Q50.4395 17.2852 61.2305 17.2852ZM61.2305 2.05078Q53.5156 2.05078 46.7529-0.854492Q39.9902-3.75977 34.8633-8.8623Q29.7363-13.9648 26.8555-20.7275Q23.9746-27.4902 23.9746-35.2051Q23.9746-42.9688 26.8555-49.7314Q29.7363-56.4941 34.8633-61.5967Q39.9902-66.6992 46.7529-69.5801Q53.5156-72.4609 61.2305-72.4609Q68.9453-72.4609 75.708-69.5801Q82.4707-66.6992 87.5977-61.5967Q92.7246-56.4941 95.6299-49.7314Q98.5352-42.9688 98.5352-35.2051Q98.5352-27.4902 95.6299-20.7275Q92.7246-13.9648 87.6221-8.8623Q82.5195-3.75977 75.7568-0.854492Q68.9941 2.05078 61.2305 2.05078ZM50.9766-8.74023L71.5332-8.74023Q72.9004-8.74023 73.999-9.08203Q75.0977-9.42383 75.8789-10.1074L76.123-10.4004L69.8242-16.6992L69.7266-16.3574Q69.5312-15.918 68.9941-15.918Q67.041-15.918 67.0898-17.8711L67.0898-19.3848L63.1836-23.3887L63.1836-17.8223Q63.1836-15.918 61.2305-15.918Q59.3262-15.918 59.3262-17.8223L59.3262-27.1973L54.9805-31.543L55.4199-17.8711Q55.4688-15.918 53.4668-15.918Q51.6602-15.918 51.5625-17.8223L51.0254-35.498L42.9688-43.5547L44.2871-14.9414Q44.4336-11.8652 46.1426-10.3027Q47.8516-8.74023 50.9766-8.74023ZM79.8828-12.6465Q80.8105-11.7188 82.1045-11.7188Q83.3984-11.7188 84.3262-12.6465Q85.2539-13.5742 85.2539-14.8682Q85.2539-16.1621 84.3262-17.1387L42.8223-58.5938Q41.8945-59.5215 40.5518-59.5215Q39.209-59.5215 38.3301-58.5938Q37.4023-57.7148 37.4023-56.3965Q37.4023-55.0781 38.3301-54.1504ZM78.8574-28.6133L79.7852-48.0957L82.3242-48.0957Q83.7402-48.0957 84.6436-48.9502Q85.5469-49.8047 85.5469-51.123Q85.5469-52.4902 84.6436-53.3203Q83.7402-54.1504 82.3242-54.1504L73.1445-54.1504L73.1445-56.543Q73.1445-59.8145 70.9961-61.6943Q68.8477-63.5742 64.9414-63.5742L57.5195-63.5742Q54.541-63.5742 52.5635-62.4268Q50.5859-61.2793 49.9023-59.1309Q49.8047-58.8379 49.7559-58.5938Q49.707-58.3496 49.6094-58.0566L49.4141-58.0566L60.8398-46.582L60.8398-46.8262Q60.9863-46.875 61.2305-46.875Q63.1836-46.875 63.1836-45.0195L63.1836-44.2871L67.7246-39.7949L67.8223-43.0664Q67.8711-44.9707 69.7754-44.9707Q71.6309-44.9707 71.6309-42.9688L71.4355-36.0352ZM55.4688-54.1504L55.4688-56.543Q55.5176-57.373 56.1035-57.8857Q56.6895-58.3984 57.5684-58.3984L64.8926-58.3984Q65.8203-58.3984 66.3574-57.8857Q66.8945-57.373 66.9434-56.543L66.9922-54.1504Z"/>
  </g>
  <g id="Bold-M" transform="matrix(1 0 0 1 2279.65 1126)">
   <path d="M60.3027 16.3574Q70.9473 16.3574 80.2734 12.3291Q89.5996 8.30078 96.7041 1.17188Q103.809-5.95703 107.861-15.2832Q111.914-24.6094 111.914-35.2539Q111.914-45.8496 107.861-55.1758Q103.809-64.502 96.7041-71.6309Q89.5996-78.7598 80.249-82.7881Q70.8984-86.8164 60.3027-86.8164Q49.707-86.8164 40.3564-82.7881Q31.0059-78.7598 23.9014-71.6309Q16.7969-64.502 12.7686-55.1758Q8.74023-45.8496 8.74023-35.2539Q8.74023-24.6094 12.7686-15.2832Q16.7969-5.95703 23.9258 1.17188Q31.0547 8.30078 40.3809 12.3291Q49.707 16.3574 60.3027 16.3574ZM60.3027 3.51562Q52.2949 3.51562 45.2637 0.488281Q38.2324-2.53906 32.9102-7.83691Q27.5879-13.1348 24.6094-20.166Q21.6309-27.1973 21.6309-35.2539Q21.6309-43.3105 24.6094-50.3174Q27.5879-57.3242 32.9102-62.6465Q38.2324-67.9688 45.2393-70.9717Q52.2461-73.9746 60.3027-73.9746Q68.3594-73.9746 75.3662-70.9717Q82.373-67.9688 87.6953-62.6465Q93.0176-57.3242 96.0449-50.3174Q99.0723-43.3105 99.0723-35.2539Q99.0723-27.1973 96.0693-20.166Q93.0664-13.1348 87.7441-7.83691Q82.4219-2.53906 75.3906 0.488281Q68.3594 3.51562 60.3027 3.51562ZM49.2188-7.95898L71.4355-7.95898Q72.9004-7.95898 74.0479-8.44727Q75.1953-8.93555 75.8789-9.76562L76.0742-10.1074L69.4336-16.748L69.2871-16.0156Q69.0918-15.2832 68.2617-15.2832Q66.3574-15.2832 66.4062-17.1387L66.4551-19.7266L62.207-24.0234L62.207-17.0898Q62.207-15.2832 60.3027-15.2832Q58.3984-15.2832 58.3984-17.0898L58.3984-27.7832L53.6621-32.5195L54.1992-17.1387Q54.248-15.2832 52.3438-15.2832Q50.5371-15.2832 50.4883-17.0898L49.8535-36.377L41.6016-44.5801L43.0176-13.8184Q43.1152-10.9375 44.7266-9.44824Q46.3379-7.95898 49.2188-7.95898ZM80.0781-11.8652Q80.9082-11.0352 82.0557-11.0596Q83.2031-11.084 84.0332-11.9141Q84.8633-12.7441 84.8633-13.8916Q84.8633-15.0391 84.0332-15.918L40.9668-58.9355Q40.1855-59.8145 38.9893-59.8145Q37.793-59.8145 36.9629-58.9355Q36.1328-58.1543 36.1328-56.9824Q36.1328-55.8105 36.9629-54.9805ZM78.2715-27.4902L79.248-48.877L82.2754-48.877Q83.4961-48.877 84.2773-49.6338Q85.0586-50.3906 85.1074-51.5625Q85.1074-52.7344 84.3018-53.4912Q83.4961-54.248 82.2754-54.248L72.2168-54.248L72.2168-57.1777Q72.2168-60.3516 70.166-62.207Q68.1152-64.0625 64.4043-64.0625L56.1523-64.0625Q53.125-64.0625 51.1719-62.6953Q49.2188-61.3281 48.7793-58.8867Q48.7305-58.5449 48.6816-58.252Q48.6328-57.959 48.584-57.6172L48.0957-57.6172L59.7656-45.9473L59.7656-46.4355Q59.9609-46.582 60.3027-46.582Q62.207-46.582 62.207-44.7754L62.207-43.5547L67.041-38.7207L67.1875-43.5059Q67.2363-45.3125 69.0918-45.3125Q70.9473-45.3125 70.9473-43.4082L70.6543-35.1074ZM54.1016-54.248L54.1504-57.0801Q54.1504-57.959 54.7607-58.4961Q55.3711-59.0332 56.25-59.0332L64.3066-59.0332Q65.2344-59.0332 65.8203-58.4961Q66.4062-57.959 66.4062-57.0801L66.4551-54.248Z"/>
  </g>
  <g id="Semibold-M" transform="matrix(1 0 0 1 1983.6 1126)">
   <path d="M59.668 15.6738Q70.1172 15.6738 79.3457 11.6943Q88.5742 7.71484 95.6055 0.683594Q102.637-6.34766 106.616-15.5518Q110.596-24.7559 110.596-35.2539Q110.596-45.7031 106.616-54.9072Q102.637-64.1113 95.6055-71.1426Q88.5742-78.1738 79.3457-82.1777Q70.1172-86.1816 59.6191-86.1816Q49.1699-86.1816 39.9658-82.1777Q30.7617-78.1738 23.7305-71.1426Q16.6992-64.1113 12.7197-54.9072Q8.74023-45.7031 8.74023-35.2539Q8.74023-24.7559 12.7197-15.5518Q16.6992-6.34766 23.7305 0.683594Q30.7617 7.71484 39.9902 11.6943Q49.2188 15.6738 59.668 15.6738ZM59.668 4.49219Q51.416 4.49219 44.2139 1.41602Q37.0117-1.66016 31.543-7.10449Q26.0742-12.5488 23.0225-19.751Q19.9707-26.9531 19.9707-35.2539Q19.9707-43.5059 23.0225-50.708Q26.0742-57.9102 31.5186-63.3789Q36.9629-68.8477 44.165-71.8994Q51.3672-74.9512 59.6191-74.9512Q67.9199-74.9512 75.1221-71.8994Q82.3242-68.8477 87.7686-63.3789Q93.2129-57.9102 96.3135-50.708Q99.4141-43.5059 99.4141-35.2539Q99.4141-26.9531 96.3379-19.751Q93.2617-12.5488 87.8174-7.10449Q82.373-1.66016 75.1465 1.41602Q67.9199 4.49219 59.668 4.49219ZM47.998-7.42188L71.3379-7.42188Q72.8516-7.42188 74.0479-7.9834Q75.2441-8.54492 75.8301-9.52148L76.0254-9.91211L69.1406-16.7969L68.9941-15.7715Q68.7988-14.8438 67.7246-14.8438Q65.8691-14.8438 65.918-16.6016L66.0156-19.9219L61.4746-24.4141L61.4746-16.6016Q61.4746-14.8438 59.6191-14.8438Q57.7637-14.8438 57.7637-16.6016L57.7637-28.1738L52.7344-33.1543L53.3203-16.6016Q53.3691-14.8438 51.5137-14.8438Q49.7559-14.8438 49.707-16.6016L48.9746-36.9629L40.6738-45.2637L42.0898-12.9883Q42.2363-10.3027 43.75-8.8623Q45.2637-7.42188 47.998-7.42188ZM80.1758-11.3281Q80.957-10.5469 82.0068-10.5713Q83.0566-10.5957 83.8379-11.377Q84.6191-12.1094 84.6191-13.1836Q84.6191-14.2578 83.8379-15.0391L39.6973-59.1797Q38.9648-59.9609 37.8662-59.9609Q36.7676-59.9609 36.0352-59.1797Q35.2051-58.4473 35.2295-57.373Q35.2539-56.2988 36.0352-55.5176ZM77.832-26.6602L78.8574-49.3652L82.1777-49.3652Q83.3008-49.3652 84.0088-50.0732Q84.7168-50.7812 84.7656-51.8066Q84.8145-52.8809 84.0576-53.5889Q83.3008-54.2969 82.1777-54.2969L71.5332-54.2969L71.5332-57.5684Q71.5332-60.7422 69.5557-62.5732Q67.5781-64.4043 64.0625-64.4043L55.2246-64.4043Q52.0996-64.4043 50.1953-62.8662Q48.291-61.3281 47.998-58.6914Q47.9492-58.3496 47.9248-58.0322Q47.9004-57.7148 47.8516-57.3242L47.2168-57.3242L59.0332-45.5078L59.0332-46.1426Q59.2285-46.3379 59.6191-46.3379Q61.4746-46.3379 61.4746-44.5801L61.4746-43.0176L66.5527-37.9883L66.748-43.75Q66.7969-45.5566 68.6035-45.5566Q70.4102-45.5566 70.4102-43.7012L70.1172-34.4727ZM53.1738-54.2969L53.1738-57.4707Q53.2227-58.3496 53.833-58.8867Q54.4434-59.4238 55.3711-59.4238L63.8672-59.4238Q64.7949-59.4238 65.4053-58.8867Q66.0156-58.3496 66.0156-57.4707L66.0645-54.2969Z"/>
  </g>
  <g id="Medium-M" transform="matrix(1 0 0 1 1687.38 1126)">
   <path d="M59.1797 15.1855Q69.5312 15.1855 78.6621 11.2305Q87.793 7.27539 94.751 0.317383Q101.709-6.64062 105.664-15.7715Q109.619-24.9023 109.619-35.2539Q109.619-45.6055 105.664-54.7363Q101.709-63.8672 94.751-70.8252Q87.793-77.7832 78.6377-81.7383Q69.4824-85.6934 59.1309-85.6934Q48.7793-85.6934 39.6484-81.7383Q30.5176-77.7832 23.584-70.8252Q16.6504-63.8672 12.6953-54.7363Q8.74023-45.6055 8.74023-35.2539Q8.74023-24.9023 12.6953-15.7715Q16.6504-6.64062 23.6084 0.317383Q30.5664 7.27539 39.6973 11.2305Q48.8281 15.1855 59.1797 15.1855ZM59.1797 5.27344Q50.7324 5.27344 43.4082 2.12402Q36.084-1.02539 30.5176-6.5918Q24.9512-12.1582 21.8262-19.4824Q18.7012-26.8066 18.7012-35.2539Q18.7012-43.7012 21.8262-51.0254Q24.9512-58.3496 30.4932-63.916Q36.0352-69.4824 43.3838-72.6074Q50.7324-75.7324 59.1309-75.7324Q67.5781-75.7324 74.9023-72.6074Q82.2266-69.4824 87.8174-63.916Q93.4082-58.3496 96.5576-51.0254Q99.707-43.7012 99.707-35.2539Q99.707-26.8066 96.582-19.4824Q93.457-12.1582 87.8906-6.5918Q82.3242-1.02539 74.9756 2.12402Q67.627 5.27344 59.1797 5.27344ZM47.0703-7.03125L71.2402-7.03125Q72.8516-7.03125 74.0479-7.6416Q75.2441-8.25195 75.8301-9.32617L75.9766-9.76562L68.8965-16.7969L68.75-15.625Q68.5059-14.502 67.2852-14.502Q65.4785-14.502 65.5273-16.2109L65.625-20.0684L60.9375-24.7559L60.9375-16.2109Q60.9375-14.502 59.082-14.502Q57.2754-14.502 57.2754-16.2109L57.2754-28.4668L52.0508-33.6914L52.6367-16.2109Q52.6855-14.502 50.8789-14.502Q49.1211-14.502 49.1211-16.2109L48.3398-37.4023L39.9414-45.8008L41.4062-12.4023Q41.5039-9.81445 42.9688-8.42285Q44.4336-7.03125 47.0703-7.03125ZM80.2734-10.9375Q81.0059-10.2051 81.9824-10.2295Q82.959-10.2539 83.6426-10.9863Q84.375-11.6699 84.375-12.6709Q84.375-13.6719 83.6426-14.4043L38.7207-59.3262Q38.0371-60.1074 37.0117-60.1074Q35.9863-60.1074 35.2539-59.3262Q34.5215-58.6426 34.5459-57.6416Q34.5703-56.6406 35.2539-55.9082ZM77.5391-26.0742L78.5645-49.7559L82.1289-49.7559Q83.1055-49.7559 83.7891-50.415Q84.4727-51.0742 84.5215-52.002Q84.5215-53.0273 83.8135-53.6865Q83.1055-54.3457 82.1289-54.3457L71.0449-54.3457L71.0449-57.9102Q71.0449-60.9863 69.0918-62.8174Q67.1387-64.6484 63.7695-64.6484L54.4434-64.6484Q51.3184-64.6484 49.4141-62.9883Q47.5098-61.3281 47.3633-58.5449Q47.3633-58.1543 47.3389-57.8125Q47.3145-57.4707 47.3145-57.0801L46.4844-57.0801L58.3984-45.166L58.3984-45.9473Q58.6914-46.1426 59.082-46.1426Q60.9375-46.1426 60.9375-44.4336L60.9375-42.627L66.1621-37.4512L66.4062-43.9453Q66.4062-45.7031 68.2617-45.7031Q70.0195-45.7031 70.0195-43.9453L69.6777-33.9844ZM52.4414-54.3457L52.4414-57.7148Q52.4414-58.6426 53.0762-59.2041Q53.7109-59.7656 54.6387-59.7656L63.5254-59.7656Q64.502-59.7656 65.1123-59.2041Q65.7227-58.6426 65.7227-57.7148L65.7227-54.3457Z"/>
  </g>
  <g id="Regular-M" transform="matrix(1 0 0 1 1391.3 1126)">
   <path d="M58.5449 14.5508Q68.75 14.5508 77.7588 10.6445Q86.7676 6.73828 93.6523-0.146484Q100.537-7.03125 104.443-16.04Q108.35-25.0488 108.35-35.2539Q108.35-45.459 104.443-54.4678Q100.537-63.4766 93.6523-70.3613Q86.7676-77.2461 77.7344-81.1523Q68.7012-85.0586 58.4961-85.0586Q48.291-85.0586 39.2822-81.1523Q30.2734-77.2461 23.4131-70.3613Q16.5527-63.4766 12.6465-54.4678Q8.74023-45.459 8.74023-35.2539Q8.74023-25.0488 12.6465-16.04Q16.5527-7.03125 23.4375-0.146484Q30.3223 6.73828 39.3311 10.6445Q48.3398 14.5508 58.5449 14.5508ZM58.5449 6.25Q49.9023 6.25 42.3828 3.02734Q34.8633-0.195312 29.1748-5.88379Q23.4863-11.5723 20.2881-19.0918Q17.0898-26.6113 17.0898-35.2539Q17.0898-43.8965 20.2881-51.416Q23.4863-58.9355 29.1504-64.6484Q34.8145-70.3613 42.334-73.5596Q49.8535-76.7578 58.4961-76.7578Q67.1387-76.7578 74.6582-73.5596Q82.1777-70.3613 87.8906-64.6484Q93.6035-58.9355 96.8262-51.416Q100.049-43.8965 100.049-35.2539Q100.049-26.6113 96.8506-19.0918Q93.6523-11.5723 87.9639-5.88379Q82.2754-0.195312 74.7314 3.02734Q67.1875 6.25 58.5449 6.25ZM45.8984-6.49414L71.1426-6.49414Q72.8027-6.49414 74.0479-7.20215Q75.293-7.91016 75.7812-9.08203L75.9277-9.57031L68.6035-16.8457L68.457-15.3809Q68.2129-14.0625 66.748-14.0625Q64.9902-14.0625 65.0391-15.7227L65.1855-20.2637L60.2539-25.1953L60.2539-15.7227Q60.2539-14.0625 58.3984-14.0625Q56.6406-14.0625 56.6406-15.7227L56.6406-28.8574L51.123-34.3262L51.8066-15.7227Q51.8066-14.0625 50.0977-14.0625Q48.3398-14.0625 48.3398-15.7227L47.5098-37.9883L39.0137-46.4844L40.5273-11.6211Q40.625-9.17969 42.0166-7.83691Q43.4082-6.49414 45.8984-6.49414ZM80.3711-10.4004Q81.0547-9.7168 81.9336-9.74121Q82.8125-9.76562 83.4473-10.4492Q84.1309-11.084 84.1309-11.9873Q84.1309-12.8906 83.4473-13.5742L37.4512-59.5703Q36.8164-60.2539 35.8887-60.2539Q34.9609-60.2539 34.3262-59.5703Q33.6426-58.9355 33.667-58.0322Q33.6914-57.1289 34.3262-56.4453ZM77.0996-25.293L78.1738-50.2441L82.0312-50.2441Q82.9102-50.2441 83.5205-50.8545Q84.1309-51.4648 84.1797-52.2949Q84.2285-53.1738 83.5693-53.7842Q82.9102-54.3945 82.0312-54.3945L70.3613-54.3945L70.3613-58.3496Q70.3613-61.377 68.4814-63.1592Q66.6016-64.9414 63.3789-64.9414L53.5156-64.9414Q50.3418-64.9414 48.4619-63.1592Q46.582-61.377 46.582-58.3496Q46.582-57.959 46.582-57.5928Q46.582-57.2266 46.582-56.7871L45.6055-56.7871L57.666-44.7266L57.666-45.6543Q57.959-45.9473 58.3984-45.9473Q60.2539-45.9473 60.2539-44.2383L60.2539-42.1387L65.6738-36.7188L65.9668-44.2383Q65.9668-45.9473 67.7734-45.9473Q69.5312-45.9473 69.5312-44.2383L69.0918-33.3496ZM51.5137-54.3945L51.5137-58.1055Q51.5137-59.0332 52.1484-59.6191Q52.7832-60.2051 53.7598-60.2051L63.0859-60.2051Q64.0625-60.2051 64.6973-59.6191Q65.332-59.0332 65.332-58.1055L65.332-54.3945Z"/>
  </g>
  <g id="Light-M" transform="matrix(1 0 0 1 1095.42 1126)">
   <path d="M57.7148 13.7207Q67.7734 13.7207 76.6357 9.8877Q85.498 6.05469 92.2607-0.708008Q99.0234-7.4707 102.856-16.333Q106.689-25.1953 106.689-35.2539Q106.689-45.3125 102.856-54.1748Q99.0234-63.0371 92.2607-69.7998Q85.498-76.5625 76.6113-80.3955Q67.7246-84.2285 57.666-84.2285Q47.6074-84.2285 38.7451-80.3955Q29.8828-76.5625 23.1445-69.7998Q16.4062-63.0371 12.5732-54.1748Q8.74023-45.3125 8.74023-35.2539Q8.74023-25.1953 12.5732-16.333Q16.4062-7.4707 23.1689-0.708008Q29.9316 6.05469 38.7939 9.8877Q47.6562 13.7207 57.7148 13.7207ZM57.7148 7.37305Q48.877 7.37305 41.1377 4.07715Q33.3984 0.78125 27.5391-5.07812Q21.6797-10.9375 18.3838-18.6768Q15.0879-26.416 15.0879-35.2539Q15.0879-44.0918 18.3838-51.8311Q21.6797-59.5703 27.5391-65.4541Q33.3984-71.3379 41.1133-74.6338Q48.8281-77.9297 57.666-77.9297Q66.5527-77.9297 74.2676-74.6338Q81.9824-71.3379 87.8662-65.4541Q93.75-59.5703 97.0703-51.8311Q100.391-44.0918 100.391-35.2539Q100.391-26.416 97.0703-18.6768Q93.75-10.9375 87.915-5.07812Q82.0801 0.78125 74.3408 4.07715Q66.6016 7.37305 57.7148 7.37305ZM45.3125-6.44531L70.2637-6.44531Q72.0703-6.44531 73.4131-7.42188Q74.7559-8.39844 75.1465-9.81445L75.2441-10.6934L67.5781-18.3105L67.334-15.2832Q67.1387-14.0625 65.8203-14.0625Q64.2578-14.0625 64.3066-15.5762L64.5996-21.2891L59.2285-26.6602L59.2285-15.5762Q59.2285-14.0625 57.5684-14.0625Q56.0059-14.0625 56.0059-15.5762L56.0059-29.9316L49.9512-35.9375L50.8789-15.5762Q50.9277-14.0625 49.3652-14.0625Q47.8516-14.0625 47.8516-15.5273L46.6309-39.3066L38.2812-47.6562L39.9414-11.5234Q40.0391-9.22852 41.4795-7.83691Q42.9199-6.44531 45.3125-6.44531ZM79.5898-10.791Q80.1758-10.2051 80.9326-10.2295Q81.6895-10.2539 82.2754-10.8398Q82.8613-11.377 82.8613-12.1582Q82.8613-12.9395 82.2754-13.5254L36.1816-59.6191Q35.6445-60.2051 34.8389-60.2051Q34.0332-60.2051 33.4961-59.6191Q32.9102-59.0332 32.9346-58.2764Q32.959-57.5195 33.4961-56.9336ZM76.1719-24.1211L77.4414-51.3184L81.6406-51.3184Q82.373-51.3184 82.9102-51.8555Q83.4473-52.3926 83.4473-53.0762Q83.4961-53.8086 82.9346-54.3457Q82.373-54.8828 81.6406-54.8828L69.3848-54.8828L69.3848-59.082Q69.3848-61.8652 67.5781-63.5742Q65.7715-65.2832 62.793-65.2832L52.6855-65.2832Q49.707-65.2832 47.9248-63.5742Q46.1426-61.8652 46.1426-59.082Q46.1426-58.4473 46.1426-57.7881Q46.1426-57.1289 46.1426-56.4453L43.8965-56.4453L56.6895-43.6523L56.6895-45.752Q56.8848-46.2891 57.5684-46.2891Q59.2285-46.2891 59.2285-44.7754L59.2285-41.1133L65.0879-35.2539L65.5762-44.8242Q65.5762-46.2891 67.1875-46.2891Q68.8477-46.2891 68.7988-44.7754L68.1152-32.2266ZM50.1465-54.8828L50.1465-58.8867Q50.1465-59.9609 50.8789-60.6201Q51.6113-61.2793 52.7832-61.2793L62.4512-61.2793Q63.6719-61.2793 64.4043-60.6201Q65.1367-59.9609 65.1367-58.8867L65.1367-54.8828Z"/>
  </g>
  <g id="Thin-M" transform="matrix(1 0 0 1 799.782 1126)">
   <path d="M56.5918 12.5977Q66.5039 12.5977 75.1709 8.88672Q83.8379 5.17578 90.4297-1.44043Q97.0215-8.05664 100.781-16.7236Q104.541-25.3906 104.541-35.2539Q104.541-45.1172 100.781-53.7842Q97.0215-62.4512 90.4297-69.0674Q83.8379-75.6836 75.1709-79.3945Q66.5039-83.1055 56.5918-83.1055Q46.7285-83.1055 38.0615-79.3945Q29.3945-75.6836 22.8271-69.0674Q16.2598-62.4512 12.5-53.7842Q8.74023-45.1172 8.74023-35.2539Q8.74023-25.3906 12.4756-16.7236Q16.2109-8.05664 22.8027-1.44043Q29.3945 5.17578 38.0859 8.88672Q46.7773 12.5977 56.5918 12.5977ZM56.5918 8.88672Q47.4609 8.88672 39.4775 5.44434Q31.4941 2.00195 25.415-4.05273Q19.3359-10.1074 15.918-18.1152Q12.5-26.123 12.5-35.2539Q12.5-44.3848 15.918-52.3926Q19.3359-60.4004 25.415-66.4795Q31.4941-72.5586 39.4775-76.001Q47.4609-79.4434 56.5918-79.4434Q65.7715-79.4434 73.7549-76.001Q81.7383-72.5586 87.8174-66.4795Q93.8965-60.4004 97.3389-52.3926Q100.781-44.3848 100.781-35.2539Q100.781-26.123 97.3633-18.1152Q93.9453-10.1074 87.8662-4.05273Q81.7871 2.00195 73.7793 5.44434Q65.7715 8.88672 56.5918 8.88672ZM44.4824-6.44531L69.0918-6.44531Q71.0938-6.44531 72.5586-7.71484Q74.0234-8.98438 74.2676-10.8398L74.3164-12.1582L66.2109-20.2148L65.8691-15.1855Q65.7227-14.0137 64.5996-14.0137Q63.2812-14.0137 63.3789-15.332L63.7695-22.6562L57.8613-28.5645L57.8613-15.332Q57.8613-14.0625 56.4941-14.0625Q55.127-14.0625 55.127-15.332L55.127-31.3477L48.3887-38.1348L49.6582-15.332Q49.7559-14.0137 48.4375-14.0137Q47.2168-14.0137 47.168-15.2832L45.459-41.0645L37.3047-49.1699L39.209-11.377Q39.3066-9.22852 40.7959-7.83691Q42.2852-6.44531 44.4824-6.44531ZM78.6133-11.3281Q79.0527-10.8887 79.6387-10.8643Q80.2246-10.8398 80.6641-11.3281Q81.1035-11.7676 81.1035-12.3779Q81.1035-12.9883 80.6641-13.4277L34.4727-59.668Q34.0332-60.1074 33.4229-60.1074Q32.8125-60.1074 32.4219-59.668Q31.8848-59.1797 31.9336-58.5938Q31.9824-58.0078 32.4219-57.5684ZM74.9512-22.6074L76.5137-52.7832L81.0547-52.7832Q81.6406-52.7832 82.0557-53.1738Q82.4707-53.5645 82.5195-54.1504Q82.5195-54.6875 82.0801-55.1025Q81.6406-55.5176 81.0547-55.5176L68.0664-55.5176L68.0664-60.1074Q68.0664-62.5 66.3818-64.0869Q64.6973-65.6738 61.9629-65.6738L51.5137-65.6738Q48.8281-65.6738 47.168-64.0869Q45.5078-62.5 45.5078-60.1074Q45.5078-59.082 45.5078-58.0566Q45.5078-57.0312 45.5078-56.0059L41.6016-56.0059L55.3711-42.2363L55.3711-45.8496Q55.4199-46.7773 56.4941-46.7773Q57.8613-46.7773 57.8613-45.5078L57.8613-39.6973L64.2578-33.3008L64.9902-45.5566Q65.0879-46.7773 66.4062-46.7773Q67.8711-46.7773 67.7734-45.459L66.7969-30.7617ZM48.3398-55.5176L48.3398-59.9121Q48.3398-61.1816 49.1943-61.9385Q50.0488-62.6953 51.4648-62.6953L61.6699-62.6953Q63.0859-62.6953 63.9648-61.9385Q64.8438-61.1816 64.8438-59.9121L64.8438-55.5176Z"/>
  </g>
  <g id="Ultralight-M" transform="matrix(1 0 0 1 503.632 1126)">
   <path d="M56.0547 12.0605Q65.8203 12.0605 74.3896 8.37402Q82.959 4.6875 89.4775-1.83105Q95.9961-8.34961 99.707-16.9189Q103.418-25.4883 103.418-35.2539Q103.418-45.0195 99.707-53.5889Q95.9961-62.1582 89.4775-68.6768Q82.959-75.1953 74.3896-78.8818Q65.8203-82.5684 56.0547-82.5684Q46.2891-82.5684 37.7197-78.8818Q29.1504-75.1953 22.6562-68.6768Q16.1621-62.1582 12.4512-53.5889Q8.74023-45.0195 8.74023-35.2539Q8.74023-25.4883 12.4268-16.9189Q16.1133-8.34961 22.6318-1.83105Q29.1504 4.6875 37.7197 8.37402Q46.2891 12.0605 56.0547 12.0605ZM56.0547 9.66797Q46.7773 9.66797 38.6475 6.17676Q30.5176 2.68555 24.3164-3.49121Q18.1152-9.66797 14.624-17.8223Q11.1328-25.9766 11.1328-35.2539Q11.1328-44.5312 14.624-52.6855Q18.1152-60.8398 24.3164-67.041Q30.5176-73.2422 38.6475-76.7334Q46.7773-80.2246 56.0547-80.2246Q65.3809-80.2246 73.5107-76.7334Q81.6406-73.2422 87.8174-67.041Q93.9941-60.8398 97.5098-52.6855Q101.025-44.5312 101.025-35.2539Q101.025-25.9766 97.5098-17.8223Q93.9941-9.66797 87.8174-3.49121Q81.6406 2.68555 73.5107 6.17676Q65.3809 9.66797 56.0547 9.66797ZM44.043-6.39648L68.457-6.39648Q70.5566-6.39648 72.0947-7.86133Q73.6328-9.32617 73.7793-11.3281L73.8281-12.8906L65.4785-21.1914L65.0879-15.0879Q64.9902-14.0137 63.9648-14.0137Q62.7441-14.0137 62.8418-15.2344L63.3301-23.3398L57.1289-29.541L57.1289-15.2344Q57.1289-14.0625 55.9082-14.0625Q54.6875-14.0625 54.6875-15.2344L54.6875-32.0801L47.5586-39.209L48.9746-15.2344Q49.1211-14.0137 47.9004-14.0137Q46.875-14.0137 46.7773-15.1367L44.8242-41.9434L36.7676-50L38.7695-11.2793Q38.8672-9.27734 40.4053-7.83691Q41.9434-6.39648 44.043-6.39648ZM78.0273-11.5723Q78.418-11.2305 78.9307-11.2061Q79.4434-11.1816 79.834-11.5723Q80.2246-12.0117 80.2246-12.5244Q80.2246-13.0371 79.834-13.3789L33.5938-59.7168Q33.2031-60.0586 32.6904-60.0586Q32.1777-60.0586 31.7871-59.7168Q31.3477-59.2773 31.3965-58.7646Q31.4453-58.252 31.7871-57.9102ZM74.3164-21.8262L75.9766-53.5156L80.7617-53.5156Q81.25-53.5156 81.6162-53.8574Q81.9824-54.1992 81.9824-54.6875Q81.9824-55.127 81.6162-55.4932Q81.25-55.8594 80.7617-55.8594L67.3828-55.8594L67.3828-60.5957Q67.3828-62.8418 65.7471-64.3799Q64.1113-65.918 61.5234-65.918L50.9277-65.918Q48.3398-65.918 46.7529-64.3799Q45.166-62.8418 45.166-60.5957Q45.166-59.4238 45.166-58.2031Q45.166-56.9824 45.166-55.8105L40.4297-55.8105L54.6387-41.5039L54.6387-45.8984Q54.6875-47.0215 55.9082-47.0215Q57.1289-47.0215 57.1289-45.8496L57.1289-39.0137L63.8184-32.3242L64.6973-45.9473Q64.7461-47.0215 65.9668-47.0215Q67.3828-47.0215 67.2363-45.8496L66.1133-30.0293ZM47.3633-55.8594L47.3633-60.4004Q47.3633-61.8164 48.291-62.6221Q49.2188-63.4277 50.7324-63.4277L61.1816-63.4277Q62.793-63.4277 63.7451-62.6221Q64.6973-61.8164 64.6973-60.4004L64.6973-55.8594Z"/>
  </g>
  <g id="Black-S" transform="matrix(1 0 0 1 2884.57 696)">
   <path d="M48.8281 6.78711Q57.5195 6.78711 65.1123 3.51562Q72.7051 0.244141 78.4912-5.54199Q84.2773-11.3281 87.5488-18.9209Q90.8203-26.5137 90.8203-35.2051Q90.8203-43.8965 87.5488-51.4893Q84.2773-59.082 78.4912-64.8682Q72.7051-70.6543 65.1123-73.9258Q57.5195-77.1973 48.8281-77.1973Q40.1367-77.1973 32.5439-73.9258Q24.9512-70.6543 19.165-64.8682Q13.3789-59.082 10.1074-51.4893Q6.83594-43.8965 6.83594-35.2051Q6.83594-26.5137 10.1074-18.9209Q13.3789-11.3281 19.165-5.54199Q24.9512 0.244141 32.5439 3.51562Q40.1367 6.78711 48.8281 6.78711ZM48.8281-7.37305Q43.0664-7.37305 38.0127-9.5459Q32.959-11.7188 29.1504-15.5273Q25.3418-19.3359 23.1689-24.3896Q20.9961-29.4434 20.9961-35.2051Q20.9961-40.9668 23.1689-46.0205Q25.3418-51.0742 29.1504-54.8828Q32.959-58.6914 38.0127-60.8643Q43.0664-63.0371 48.8281-63.0371Q54.5898-63.0371 59.6436-60.8643Q64.6973-58.6914 68.5059-54.8828Q72.3145-51.0742 74.4873-46.0205Q76.6602-40.9668 76.6602-35.2051Q76.6602-29.4434 74.4873-24.3896Q72.3145-19.3359 68.5059-15.5273Q64.6973-11.7188 59.6436-9.5459Q54.5898-7.37305 48.8281-7.37305ZM41.6016-15.2344L56.1523-15.2344Q57.1289-15.2344 57.9346-15.4053Q58.7402-15.5762 59.4727-15.9668L59.7168-16.1133L55.0781-20.752L54.9805-20.752Q54.9316-20.752 54.8584-20.752Q54.7852-20.752 54.7852-20.752Q53.2227-20.752 53.2227-22.3145L53.2227-22.6074L50.4395-25.3906L50.4395-22.2656Q50.4395-20.752 48.9258-20.752Q47.3633-20.752 47.3633-22.2656L47.3633-28.4668L44.3359-31.4941L44.5801-22.3145Q44.6289-20.752 43.0176-20.752Q41.5527-20.752 41.5039-22.2656L41.1621-34.668L34.9609-40.8203L35.9375-20.459Q36.0352-17.8223 37.5-16.5283Q38.9648-15.2344 41.6016-15.2344ZM62.4023-18.3105Q63.1836-17.5293 64.3311-17.5293Q65.4785-17.5293 66.3086-18.3105Q67.0898-19.1406 67.0898-20.2881Q67.0898-21.4355 66.3086-22.2168L35.3027-53.2227Q34.4727-54.0527 33.3008-54.0527Q32.1289-54.0527 31.3477-53.2227Q30.5176-52.4414 30.5176-51.2939Q30.5176-50.1465 31.3477-49.3164ZM62.3535-31.1035L63.0371-44.6777L64.6484-44.6777Q65.8691-44.6777 66.6748-45.4102Q67.4805-46.1426 67.4805-47.3633Q67.4805-48.584 66.6748-49.292Q65.8691-50 64.6484-50L58.2031-50L58.2031-51.3184Q58.2031-54.0039 56.4453-55.5176Q54.6875-57.0312 51.3672-57.0312L46.3867-57.0312Q44.0918-57.0312 42.5293-56.3232Q40.9668-55.6152 40.2344-54.248Q40.0879-54.0527 40.0146-53.8818Q39.9414-53.7109 39.8926-53.5156L39.8926-53.5156L48.7305-44.6777L48.7305-44.6777Q48.7305-44.6777 48.8037-44.6777Q48.877-44.6777 48.9258-44.6777Q50.4395-44.6777 50.4395-43.2129L50.4395-42.9688L53.7109-39.7461L53.7598-41.0156Q53.8086-42.5781 55.3223-42.5781Q56.8359-42.5781 56.8359-40.918L56.7383-36.7188ZM44.7266-50L44.7754-51.4648Q44.8242-52.832 46.3379-52.832L51.4648-52.832Q52.9297-52.832 53.0273-51.4648L53.0762-50Z"/>
  </g>
  <g id="Heavy-S" transform="matrix(1 0 0 1 2588.47 696)">
   <path d="M48.1934 6.15234Q56.7871 6.15234 64.2578 2.92969Q71.7285-0.292969 77.4414-6.00586Q83.1543-11.7188 86.377-19.1895Q89.5996-26.6602 89.5996-35.2051Q89.5996-43.75 86.377-51.2451Q83.1543-58.7402 77.4414-64.4531Q71.7285-70.166 64.2334-73.3887Q56.7383-76.6113 48.1934-76.6113Q39.6484-76.6113 32.1777-73.3887Q24.707-70.166 18.9941-64.4531Q13.2812-58.7402 10.0586-51.2451Q6.83594-43.75 6.83594-35.2051Q6.83594-26.6602 10.0586-19.1895Q13.2812-11.7188 18.9941-6.00586Q24.707-0.292969 32.2021 2.92969Q39.6973 6.15234 48.1934 6.15234ZM48.1934-6.39648Q42.2363-6.39648 37.0117-8.64258Q31.7871-10.8887 27.8564-14.8438Q23.9258-18.7988 21.6797-24.0234Q19.4336-29.248 19.4336-35.2051Q19.4336-41.1621 21.6553-46.4111Q23.877-51.6602 27.832-55.5908Q31.7871-59.5215 37.0117-61.7676Q42.2363-64.0137 48.1934-64.0137Q54.1992-64.0137 59.4238-61.7676Q64.6484-59.5215 68.5791-55.5908Q72.5098-51.6602 74.7803-46.4111Q77.0508-41.1621 77.0508-35.2051Q77.0508-29.248 74.8047-24.0234Q72.5586-18.7988 68.6035-14.8438Q64.6484-10.8887 59.4238-8.64258Q54.1992-6.39648 48.1934-6.39648ZM40.332-14.6484L56.2012-14.6484Q57.2266-14.6484 58.0566-14.8682Q58.8867-15.0879 59.5703-15.5762L59.7656-15.7715L54.8828-20.6055L54.834-20.5078Q54.7363-20.3613 54.5898-20.3125Q54.4434-20.2637 54.2969-20.2637Q52.7832-20.2637 52.7832-21.7773L52.7832-22.7051L49.8047-25.6836L49.8047-21.7285Q49.8047-20.2637 48.291-20.2637Q46.7285-20.2637 46.7285-21.7285L46.7285-28.7598L43.5059-32.0312L43.75-21.7773Q43.7988-20.2637 42.2363-20.2637Q40.7715-20.2637 40.7227-21.7285L40.3809-35.1562L34.0332-41.4551L35.0586-19.5801Q35.1562-17.0898 36.5234-15.8691Q37.8906-14.6484 40.332-14.6484ZM62.6465-17.6758Q63.3789-16.9434 64.4287-16.9434Q65.4785-16.9434 66.2598-17.6758Q66.9922-18.457 66.9922-19.5068Q66.9922-20.5566 66.2598-21.2891L34.082-53.4668Q33.3008-54.248 32.2266-54.248Q31.1523-54.248 30.4199-53.4668Q29.6387-52.7344 29.6387-51.6846Q29.6387-50.6348 30.4199-49.8535ZM62.0117-30.3711L62.7441-45.0684L64.6484-45.0684Q65.7227-45.0684 66.4795-45.7764Q67.2363-46.4844 67.2363-47.5586Q67.2363-48.6816 66.4795-49.3408Q65.7227-50 64.6484-50L57.6172-50L57.6172-51.709Q57.6172-54.3457 55.9082-55.835Q54.1992-57.3242 51.0742-57.3242L45.459-57.3242Q43.0664-57.3242 41.5283-56.4453Q39.9902-55.5664 39.4531-53.9551Q39.3066-53.7598 39.2578-53.5889Q39.209-53.418 39.1602-53.2227L39.1113-53.2227L48.0469-44.3359L48.0469-44.3848Q48.0469-44.3848 48.1445-44.3848Q48.2422-44.3848 48.291-44.3848Q49.8047-44.3848 49.8047-42.9199L49.8047-42.5293L53.2715-39.1113L53.3203-41.2598Q53.3691-42.7734 54.8828-42.7734Q56.3965-42.7734 56.3965-41.1621L56.25-36.1328ZM43.8965-50L43.8965-51.7578Q43.9453-53.1738 45.459-53.1738L51.0742-53.1738Q52.5879-53.1738 52.6367-51.7578L52.6855-50Z"/>
  </g>
  <g id="Bold-S" transform="matrix(1 0 0 1 2292.42 696)">
   <path d="M47.5586 5.46875Q55.957 5.46875 63.3057 2.29492Q70.6543-0.878906 76.2695-6.51855Q81.8848-12.1582 85.083-19.5068Q88.2812-26.8555 88.2812-35.2539Q88.2812-43.6035 85.083-50.9766Q81.8848-58.3496 76.2695-63.9648Q70.6543-69.5801 63.2812-72.7539Q55.9082-75.9277 47.5098-75.9277Q39.1602-75.9277 31.7871-72.7539Q24.4141-69.5801 18.8232-63.9648Q13.2324-58.3496 10.0342-50.9766Q6.83594-43.6035 6.83594-35.2539Q6.83594-26.8555 10.0342-19.5068Q13.2324-12.1582 18.8477-6.51855Q24.4629-0.878906 31.8115 2.29492Q39.1602 5.46875 47.5586 5.46875ZM47.5586-5.32227Q41.3574-5.32227 35.9375-7.6416Q30.5176-9.96094 26.416-14.0625Q22.3145-18.1641 19.9951-23.6084Q17.6758-29.0527 17.6758-35.2539Q17.6758-41.4551 19.9951-46.875Q22.3145-52.2949 26.3916-56.3965Q30.4688-60.498 35.8887-62.8174Q41.3086-65.1367 47.5098-65.1367Q53.7598-65.1367 59.1797-62.8174Q64.5996-60.498 68.7012-56.3965Q72.8027-52.2949 75.1221-46.875Q77.4414-41.4551 77.4414-35.2539Q77.4414-29.0527 75.1221-23.6084Q72.8027-18.1641 68.7256-14.0625Q64.6484-9.96094 59.2041-7.6416Q53.7598-5.32227 47.5586-5.32227ZM38.9648-14.0137L56.25-14.0137Q57.3242-14.0137 58.2031-14.3066Q59.082-14.5996 59.668-15.1855L59.8145-15.3809L54.7363-20.459L54.6387-20.2637Q54.5898-19.9707 54.3457-19.8486Q54.1016-19.7266 53.8086-19.7266Q52.3438-19.7266 52.3438-21.1914L52.3438-22.8027L49.1211-26.0742L49.1211-21.1426Q49.1211-19.7266 47.6074-19.7266Q46.0938-19.7266 46.0938-21.1426L46.0938-29.1016L42.5781-32.6172L42.8711-21.1914Q42.9199-19.7266 41.3574-19.7266Q39.8926-19.7266 39.8926-21.1426L39.502-35.7422L33.0078-42.1875L34.082-18.6523Q34.1309-16.3086 35.4004-15.1611Q36.6699-14.0137 38.9648-14.0137ZM62.9395-16.9434Q63.623-16.3086 64.5752-16.3086Q65.5273-16.3086 66.2109-16.9922Q66.8945-17.6758 66.8945-18.6279Q66.8945-19.5801 66.2109-20.2637L32.7148-53.7598Q32.0312-54.4922 31.0547-54.4922Q30.0781-54.4922 29.3945-53.7598Q28.7109-53.125 28.7109-52.1484Q28.7109-51.1719 29.3945-50.4883ZM61.6699-29.541L62.4023-45.5566L64.6484-45.5566Q65.625-45.5566 66.2842-46.1914Q66.9434-46.8262 66.9434-47.8027Q66.9922-48.7793 66.3086-49.4141Q65.625-50.0488 64.6484-50.0488L56.9824-50.0488L56.9824-52.1484Q56.9824-54.7363 55.3467-56.2256Q53.7109-57.7148 50.7324-57.7148L44.4336-57.7148Q41.9922-57.7148 40.4541-56.6406Q38.916-55.5664 38.5742-53.6133Q38.4766-53.4668 38.4521-53.2959Q38.4277-53.125 38.3789-52.9297L38.2812-52.9297L47.2656-43.9453L47.2656-44.043Q47.3145-44.043 47.4121-44.0674Q47.5098-44.0918 47.6074-44.0918Q49.1211-44.0918 49.1211-42.627L49.1211-42.0898L52.7832-38.4277L52.8809-41.5527Q52.9297-43.0176 54.3945-43.0176Q55.9082-43.0176 55.9082-41.5039L55.7129-35.498ZM42.9688-50.0488L42.9688-52.0996Q43.0176-53.5645 44.5312-53.5645L50.6348-53.5645Q52.1973-53.5645 52.2461-52.0996L52.2461-50.0488Z"/>
  </g>
  <g id="Semibold-S" transform="matrix(1 0 0 1 1996.2 696)">
   <path d="M47.0703 4.98047Q55.3711 4.98047 62.6465 1.85547Q69.9219-1.26953 75.4639-6.86035Q81.0059-12.4512 84.1553-19.7266Q87.3047-27.002 87.3047-35.2539Q87.3047-43.5059 84.1553-50.7812Q81.0059-58.0566 75.4395-63.623Q69.873-69.1895 62.5977-72.3389Q55.3223-75.4883 47.0215-75.4883Q38.7695-75.4883 31.4941-72.3389Q24.2188-69.1895 18.6768-63.623Q13.1348-58.0566 9.98535-50.7812Q6.83594-43.5059 6.83594-35.2539Q6.83594-27.002 9.98535-19.7266Q13.1348-12.4512 18.7012-6.86035Q24.2676-1.26953 31.543 1.85547Q38.8184 4.98047 47.0703 4.98047ZM47.0703-4.58984Q40.7227-4.58984 35.1562-6.95801Q29.5898-9.32617 25.3906-13.5254Q21.1914-17.7246 18.8232-23.291Q16.4551-28.8574 16.4551-35.2539Q16.4551-41.6016 18.8232-47.168Q21.1914-52.7344 25.3662-56.9336Q29.541-61.1328 35.1074-63.5254Q40.6738-65.918 47.0215-65.918Q53.418-65.918 58.9844-63.5254Q64.5508-61.1328 68.75-56.9336Q72.9492-52.7344 75.3418-47.168Q77.7344-41.6016 77.7344-35.2539Q77.7344-28.8574 75.3662-23.291Q72.998-17.7246 68.7988-13.5254Q64.5996-9.32617 59.0332-6.95801Q53.4668-4.58984 47.0703-4.58984ZM37.9395-13.5254L56.2012-13.5254Q57.3242-13.5254 58.2275-13.8672Q59.1309-14.209 59.668-14.8438L59.8145-15.0879L54.541-20.3613L54.4434-20.0684Q54.3945-19.6777 54.0771-19.5068Q53.7598-19.3359 53.418-19.3359Q51.9531-19.3359 51.9531-20.752L51.9531-22.8516L48.584-26.2695L48.584-20.752Q48.584-19.3359 47.0703-19.3359Q45.5566-19.3359 45.5566-20.752L45.5566-29.2969L41.8457-33.0078L42.1387-20.752Q42.1875-19.3359 40.6738-19.3359Q39.209-19.3359 39.209-20.752L38.8184-36.084L32.2266-42.6758L33.3008-17.9688Q33.3984-15.7715 34.5947-14.6484Q35.791-13.5254 37.9395-13.5254ZM63.0859-16.4551Q63.7207-15.8203 64.5996-15.8203Q65.4785-15.8203 66.1133-16.4551Q66.748-17.0898 66.748-17.9932Q66.748-18.8965 66.1133-19.5312L31.6895-53.9551Q31.0547-54.6387 30.1514-54.6387Q29.248-54.6387 28.6133-53.9551Q27.9785-53.3203 27.9785-52.4414Q27.9785-51.5625 28.6133-50.9277ZM61.3281-28.9551L62.0605-45.8984L64.5508-45.8984Q65.4297-45.8984 66.04-46.4844Q66.6504-47.0703 66.6992-47.9492Q66.748-48.8281 66.0889-49.4385Q65.4297-50.0488 64.5508-50.0488L56.4453-50.0488L56.4453-52.4414Q56.4453-54.9805 54.8584-56.4453Q53.2715-57.9102 50.3906-57.9102L43.6523-57.9102Q41.1133-57.9102 39.624-56.7139Q38.1348-55.5176 37.8906-53.3691Q37.8418-53.2227 37.8174-53.0518Q37.793-52.8809 37.793-52.6855L37.6465-52.6855L46.6309-43.7012L46.6309-43.7988Q46.7285-43.7988 46.8506-43.8232Q46.9727-43.8477 47.0703-43.8477Q48.584-43.8477 48.584-42.4316L48.584-41.748L52.3926-37.9395L52.4902-41.6992Q52.5391-43.1641 54.0039-43.1641Q55.4688-43.1641 55.4688-41.6992L55.2734-35.0586ZM42.2363-50.0488L42.2363-52.3438Q42.2852-53.8086 43.7988-53.8086L50.293-53.8086Q51.8555-53.8086 51.8555-52.3438L51.9043-50.0488Z"/>
  </g>
  <g id="Medium-S" transform="matrix(1 0 0 1 1699.83 696)">
   <path d="M46.7285 4.63867Q54.9316 4.63867 62.1338 1.51367Q69.3359-1.61133 74.8535-7.12891Q80.3711-12.6465 83.4961-19.8486Q86.6211-27.0508 86.6211-35.2539Q86.6211-43.4082 83.4961-50.6348Q80.3711-57.8613 74.8291-63.3789Q69.2871-68.8965 62.085-71.9971Q54.8828-75.0977 46.6797-75.0977Q38.4766-75.0977 31.2744-71.9971Q24.0723-68.8965 18.5791-63.3789Q13.0859-57.8613 9.96094-50.6348Q6.83594-43.4082 6.83594-35.2539Q6.83594-27.0508 9.96094-19.8486Q13.0859-12.6465 18.6035-7.12891Q24.1211-1.61133 31.3232 1.51367Q38.5254 4.63867 46.7285 4.63867ZM46.7285-4.00391Q40.2344-4.00391 34.5703-6.4209Q28.9062-8.83789 24.6338-13.1348Q20.3613-17.4316 17.9443-23.0957Q15.5273-28.7598 15.5273-35.2539Q15.5273-41.748 17.9199-47.4121Q20.3125-53.0762 24.585-57.373Q28.8574-61.6699 34.5215-64.0869Q40.1855-66.5039 46.6797-66.5039Q53.1738-66.5039 58.8379-64.0869Q64.502-61.6699 68.7988-57.373Q73.0957-53.0762 75.5127-47.4121Q77.9297-41.748 77.9297-35.2539Q77.9297-28.7598 75.5127-23.0957Q73.0957-17.4316 68.8477-13.1348Q64.5996-8.83789 58.9111-6.4209Q53.2227-4.00391 46.7285-4.00391ZM37.2559-13.1836L56.25-13.1836Q57.4219-13.1836 58.3252-13.5498Q59.2285-13.916 59.7168-14.6484L59.8633-14.8926L54.4434-20.2637L54.3945-19.9219Q54.2969-19.4824 53.9551-19.2627Q53.6133-19.043 53.1738-19.043Q51.709-19.043 51.709-20.4102L51.7578-22.9492L48.2422-26.4648L48.2422-20.4102Q48.2422-19.043 46.7285-19.043Q45.2148-19.043 45.2148-20.4102L45.2148-29.4922L41.3574-33.3496L41.6992-20.4102Q41.748-19.043 40.2832-19.043Q38.8184-19.043 38.7695-20.4102L38.3789-36.377L31.7383-43.0176L32.8125-17.4316Q32.8613-15.332 34.0088-14.2578Q35.1562-13.1836 37.2559-13.1836ZM63.2324-16.0645Q63.8672-15.4785 64.6973-15.4785Q65.5273-15.4785 66.1133-16.1133Q66.6992-16.6992 66.6992-17.5537Q66.6992-18.4082 66.1133-18.9941L31.0059-54.1016Q30.3711-54.7363 29.541-54.7363Q28.7109-54.7363 28.125-54.1016Q27.4902-53.5156 27.4902-52.6611Q27.4902-51.8066 28.125-51.2207ZM61.1816-28.5645L61.9141-46.1426L64.5996-46.1426Q65.3809-46.1426 65.9424-46.7041Q66.5039-47.2656 66.5527-48.0957Q66.6016-48.9258 65.9912-49.4873Q65.3809-50.0488 64.5996-50.0488L56.1523-50.0488L56.1523-52.6855Q56.1523-55.2246 54.5898-56.665Q53.0273-58.1055 50.2441-58.1055L43.1641-58.1055Q40.5762-58.1055 39.0625-56.8115Q37.5488-55.5176 37.4512-53.2227Q37.4023-53.0273 37.4023-52.8564Q37.4023-52.6855 37.3535-52.4902L37.207-52.4902L46.2402-43.457L46.2402-43.6035Q46.3867-43.6523 46.4844-43.6523Q46.582-43.6523 46.7285-43.6523Q48.2422-43.6523 48.2422-42.2363L48.2422-41.5039L52.1484-37.5977L52.2949-41.8457Q52.2949-43.3105 53.7598-43.3105Q55.2246-43.3105 55.2246-41.8457L55.0293-34.7168ZM41.748-50.0488L41.7969-52.4902Q41.7969-54.0039 43.3594-54.0039L50.0488-54.0039Q51.6602-54.0039 51.6602-52.4902L51.6602-50.0488Z"/>
  </g>
  <g id="Regular-S" transform="matrix(1 0 0 1 1403.58 696)">
   <path d="M46.2402 4.15039Q54.3457 4.15039 61.4746 1.07422Q68.6035-2.00195 74.0479-7.4707Q79.4922-12.9395 82.5928-20.0684Q85.6934-27.1973 85.6934-35.2539Q85.6934-43.3105 82.5928-50.4395Q79.4922-57.5684 74.0234-63.0371Q68.5547-68.5059 61.4258-71.582Q54.2969-74.6582 46.1914-74.6582Q38.1348-74.6582 31.0059-71.582Q23.877-68.5059 18.457-63.0371Q13.0371-57.5684 9.93652-50.4395Q6.83594-43.3105 6.83594-35.2539Q6.83594-27.1973 9.93652-20.0684Q13.0371-12.9395 18.4814-7.4707Q23.9258-2.00195 31.0547 1.07422Q38.1836 4.15039 46.2402 4.15039ZM46.2402-3.27148Q39.5996-3.27148 33.8135-5.7373Q28.0273-8.20312 23.6572-12.5977Q19.2871-16.9922 16.8213-22.8027Q14.3555-28.6133 14.3555-35.2539Q14.3555-41.8945 16.7969-47.7051Q19.2383-53.5156 23.6084-57.9102Q27.9785-62.3047 33.7646-64.7705Q39.5508-67.2363 46.1914-67.2363Q52.8809-67.2363 58.667-64.7705Q64.4531-62.3047 68.8477-57.9102Q73.2422-53.5156 75.7324-47.7051Q78.2227-41.8945 78.2227-35.2539Q78.2227-28.6133 75.7568-22.8027Q73.291-16.9922 68.9209-12.5977Q64.5508-8.20312 58.7402-5.7373Q52.9297-3.27148 46.2402-3.27148ZM36.2793-12.7441L56.25-12.7441Q57.4707-12.7441 58.3984-13.1592Q59.3262-13.5742 59.7656-14.3555L59.8633-14.5996L54.2969-20.166L54.248-19.7266Q54.1504-19.1895 53.7354-18.9209Q53.3203-18.6523 52.7832-18.6523Q51.3672-18.6523 51.3672-20.0195L51.416-22.998L47.7539-26.709L47.7539-20.0195Q47.7539-18.6523 46.2402-18.6523Q44.7266-18.6523 44.7266-20.0195L44.7266-29.6875L40.7227-33.7402L41.0645-20.0195Q41.1133-18.6523 39.6484-18.6523Q38.1836-18.6523 38.1836-20.0195L37.7441-36.7676L31.0059-43.5059L32.1289-16.7969Q32.1777-14.7949 33.252-13.7695Q34.3262-12.7441 36.2793-12.7441ZM63.4277-15.5762Q64.0137-15.0391 64.7705-15.0391Q65.5273-15.0391 66.0645-15.625Q66.6016-16.1621 66.6016-16.9434Q66.6016-17.7246 66.0645-18.3105L30.0293-54.2969Q29.4922-54.8828 28.7109-54.8828Q27.9297-54.8828 27.3926-54.2969Q26.8066-53.7598 26.8066-52.9785Q26.8066-52.1973 27.3926-51.6602ZM60.8887-27.9785L61.6699-46.4355L64.5508-46.4355Q65.2832-46.4355 65.7959-46.9727Q66.3086-47.5098 66.3574-48.2422Q66.4062-48.9746 65.8447-49.5117Q65.2832-50.0488 64.5508-50.0488L55.6641-50.0488L55.6641-52.9785Q55.6641-55.4688 54.1504-56.9092Q52.6367-58.3496 50-58.3496L42.4316-58.3496Q39.7949-58.3496 38.3057-56.9092Q36.8164-55.4688 36.8164-52.9785Q36.8164-52.832 36.8164-52.6611Q36.8164-52.4902 36.8164-52.2949L36.6211-52.2949L45.7031-43.2129L45.7031-43.3594Q45.8496-43.4082 45.9717-43.4326Q46.0938-43.457 46.2402-43.457Q47.7539-43.457 47.7539-42.041L47.7539-41.1621L51.8066-37.1094L51.9531-42.041Q51.9531-43.457 53.418-43.457Q54.8828-43.457 54.8828-42.041L54.6387-34.2773ZM41.1133-50.0488L41.1133-52.7344Q41.1133-54.248 42.6758-54.248L49.7559-54.248Q51.3672-54.248 51.3672-52.7344L51.3672-50.0488Z"/>
  </g>
  <g id="Light-S" transform="matrix(1 0 0 1 1107.6 696)">
   <path d="M45.5078 3.41797Q53.4668 3.41797 60.4736 0.415039Q67.4805-2.58789 72.8271-7.95898Q78.1738-13.3301 81.2012-20.3125Q84.2285-27.2949 84.2285-35.2539Q84.2285-43.2129 81.2012-50.1953Q78.1738-57.1777 72.8027-62.5488Q67.4316-67.9199 60.4492-70.9229Q53.4668-73.9258 45.459-73.9258Q37.5488-73.9258 30.542-70.9229Q23.5352-67.9199 18.2129-62.5488Q12.8906-57.1777 9.86328-50.1953Q6.83594-43.2129 6.83594-35.2539Q6.83594-27.2949 9.86328-20.3125Q12.8906-13.3301 18.2373-7.95898Q23.584-2.58789 30.5908 0.415039Q37.5977 3.41797 45.5078 3.41797ZM45.5078-2.29492Q38.6719-2.29492 32.6904-4.83398Q26.709-7.37305 22.1924-11.9141Q17.6758-16.4551 15.1367-22.4365Q12.5977-28.418 12.5977-35.2539Q12.5977-42.0898 15.1367-48.0713Q17.6758-54.0527 22.1924-58.5938Q26.709-63.1348 32.666-65.6738Q38.623-68.2129 45.459-68.2129Q52.3438-68.2129 58.3252-65.6738Q64.3066-63.1348 68.8232-58.5938Q73.3398-54.0527 75.9277-48.0713Q78.5156-42.0898 78.5156-35.2539Q78.5156-28.418 75.9521-22.4365Q73.3887-16.4551 68.8721-11.9141Q64.3555-7.37305 58.374-4.83398Q52.3926-2.29492 45.5078-2.29492ZM35.7422-12.6953L55.4199-12.6953Q56.7871-12.6953 57.7881-13.3545Q58.7891-14.0137 59.1309-15.0391L59.2285-15.5762L53.3691-21.4355L53.2227-19.6289Q53.125-19.1406 52.7832-18.8965Q52.4414-18.6523 51.9531-18.6523Q50.6836-18.6523 50.6836-19.873L50.8301-23.9258L46.8262-27.9785L46.8262-19.873Q46.8262-18.6523 45.459-18.6523Q44.1406-18.6523 44.1406-19.873L44.1406-30.6641L39.6484-35.1562L40.2344-19.873Q40.2832-18.6523 38.9648-18.6523Q37.6953-18.6523 37.6953-19.873L36.9141-37.9395L30.3223-44.5312L31.5918-16.6992Q31.6406-14.8438 32.7393-13.7695Q33.8379-12.6953 35.7422-12.6953ZM62.6953-15.918Q63.1836-15.4785 63.8428-15.4785Q64.502-15.4785 64.9414-15.9668Q65.4297-16.4551 65.4297-17.1143Q65.4297-17.7734 64.9414-18.2617L28.8574-54.3457Q28.418-54.834 27.7344-54.834Q27.0508-54.834 26.6113-54.3457Q26.123-53.8574 26.123-53.1982Q26.123-52.5391 26.6113-52.0996ZM60.0586-27.002L60.9863-47.4121L64.1602-47.4121Q64.7461-47.4121 65.1855-47.8516Q65.625-48.291 65.6738-48.9258Q65.7227-49.5605 65.2344-50.0244Q64.7461-50.4883 64.1602-50.4883L54.7363-50.4883L54.7363-53.6621Q54.7363-55.9082 53.2959-57.2754Q51.8555-58.6426 49.4141-58.6426L41.6504-58.6426Q39.1602-58.6426 37.7686-57.2754Q36.377-55.9082 36.377-53.6621Q36.377-53.2715 36.377-52.8564Q36.377-52.4414 36.377-52.002L35.0586-52.002L44.7754-42.2363L44.7754-43.4082Q44.873-43.6035 45.0439-43.7012Q45.2148-43.7988 45.459-43.7988Q46.8262-43.7988 46.8262-42.5293L46.8262-40.2344L51.2207-35.791L51.5625-42.5293Q51.5625-43.7988 52.8809-43.7988Q54.1992-43.7988 54.1992-42.5293L53.7598-33.3008ZM39.8438-50.4883L39.8438-53.418Q39.8438-55.2246 41.748-55.2246L49.1699-55.2246Q51.123-55.2246 51.123-53.418L51.123-50.4883Z"/>
  </g>
  <g id="Thin-S" transform="matrix(1 0 0 1 811.867 696)">
   <path d="M44.5312 2.44141Q52.3438 2.44141 59.1553-0.488281Q65.9668-3.41797 71.1914-8.64258Q76.416-13.8672 79.3457-20.6787Q82.2754-27.4902 82.2754-35.2539Q82.2754-43.0176 79.3457-49.8291Q76.416-56.6406 71.1914-61.8652Q65.9668-67.0898 59.1553-70.0195Q52.3438-72.9492 44.5312-72.9492Q36.7676-72.9492 29.9316-70.0195Q23.0957-67.0898 17.9199-61.8652Q12.7441-56.6406 9.79004-49.8291Q6.83594-43.0176 6.83594-35.2539Q6.83594-27.4902 9.79004-20.6787Q12.7441-13.8672 17.9199-8.64258Q23.0957-3.41797 29.9316-0.488281Q36.7676 2.44141 44.5312 2.44141ZM44.5312-0.927734Q37.4512-0.927734 31.2256-3.58887Q25-6.25 20.2881-10.9619Q15.5762-15.6738 12.915-21.9238Q10.2539-28.1738 10.2539-35.2539Q10.2539-42.334 12.915-48.584Q15.5762-54.834 20.2881-59.5459Q25-64.2578 31.2256-66.9189Q37.4512-69.5801 44.5312-69.5801Q51.6602-69.5801 57.8857-66.9189Q64.1113-64.2578 68.8232-59.5459Q73.5352-54.834 76.1963-48.584Q78.8574-42.334 78.8574-35.2539Q78.8574-28.1738 76.1963-21.9238Q73.5352-15.6738 68.8232-10.9619Q64.1113-6.25 57.8857-3.58887Q51.6602-0.927734 44.5312-0.927734ZM35.0098-12.6953L54.3457-12.6953Q55.8594-12.6953 57.0068-13.623Q58.1543-14.5508 58.3008-15.918L58.3496-16.8457L52.1484-23.0957L51.8555-19.5312Q51.8066-19.1406 51.5381-18.8721Q51.2695-18.6035 50.8301-18.6035Q49.7559-18.6035 49.8047-19.7266L50.1465-25.0977L45.6055-29.6387L45.6055-19.7266Q45.6055-18.6523 44.4824-18.6523Q43.3594-18.6523 43.3594-19.7266L43.3594-31.8848L38.2324-37.0605L39.1113-19.7266Q39.209-18.6035 38.0859-18.6035Q37.1094-18.6035 37.0605-19.6289L35.8398-39.4531L29.3945-45.8496L30.8594-16.6016Q30.9082-14.8438 32.0801-13.7695Q33.252-12.6953 35.0098-12.6953ZM61.7676-16.4062Q62.1582-16.0645 62.6465-16.04Q63.1348-16.0156 63.5254-16.4062Q63.8672-16.7969 63.8672-17.2852Q63.8672-17.7734 63.5254-18.1641L27.3438-54.3457Q27.002-54.7363 26.4648-54.7363Q25.9277-54.7363 25.5859-54.3457Q25.1953-53.9551 25.1953-53.4668Q25.1953-52.9785 25.5859-52.6367ZM58.9355-25.6348L60.1074-48.6816L63.623-48.6816Q64.1113-48.6816 64.4531-49.0234Q64.7949-49.3652 64.7949-49.8535Q64.7949-50.293 64.4531-50.6592Q64.1113-51.0254 63.623-51.0254L53.5645-51.0254L53.5645-54.541Q53.5645-56.4941 52.2217-57.7393Q50.8789-58.9844 48.7305-58.9844L40.5762-58.9844Q38.3789-58.9844 37.085-57.7393Q35.791-56.4941 35.791-54.541Q35.791-53.8086 35.791-53.0762Q35.791-52.3438 35.791-51.6113L33.0078-51.6113L43.6035-41.0156L43.6035-43.5059Q43.6523-43.8477 43.8721-44.0186Q44.0918-44.1895 44.4824-44.1895Q45.6055-44.1895 45.6055-43.1641L45.6055-39.0137L50.5371-34.082L51.0254-43.2129Q51.0742-44.1895 52.1484-44.1895Q53.3691-44.1895 53.2715-43.1152L52.5879-32.0312ZM38.2324-51.0254L38.2324-54.3457Q38.2324-56.4453 40.5273-56.4453L48.4863-56.4453Q50.8789-56.4453 50.8789-54.3457L50.8789-51.0254Z"/>
  </g>
  <g id="Ultralight-S" transform="matrix(1 0 0 1 515.644 696)">
   <path d="M44.043 1.95312Q51.7578 1.95312 58.4717-0.927734Q65.1855-3.80859 70.3369-8.95996Q75.4883-14.1113 78.3936-20.8252Q81.2988-27.5391 81.2988-35.2539Q81.2988-42.9688 78.3936-49.6826Q75.4883-56.3965 70.3369-61.5479Q65.1855-66.6992 58.4717-69.5801Q51.7578-72.4609 44.043-72.4609Q36.377-72.4609 29.6387-69.5801Q22.9004-66.6992 17.7734-61.5479Q12.6465-56.3965 9.74121-49.6826Q6.83594-42.9688 6.83594-35.2539Q6.83594-27.5391 9.74121-20.8252Q12.6465-14.1113 17.7734-8.95996Q22.9004-3.80859 29.6387-0.927734Q36.377 1.95312 44.043 1.95312ZM44.043-0.292969Q36.8164-0.292969 30.4688-3.00293Q24.1211-5.71289 19.3115-10.5225Q14.502-15.332 11.7676-21.6797Q9.0332-28.0273 9.0332-35.2539Q9.0332-42.4805 11.7676-48.8281Q14.502-55.1758 19.3115-59.9854Q24.1211-64.7949 30.4688-67.5049Q36.8164-70.2148 44.043-70.2148Q51.2695-70.2148 57.6416-67.5049Q64.0137-64.7949 68.7988-59.9854Q73.584-55.1758 76.3184-48.8281Q79.0527-42.4805 79.0527-35.2539Q79.0527-28.0273 76.3428-21.6797Q73.6328-15.332 68.8232-10.5225Q64.0137-5.71289 57.666-3.00293Q51.3184-0.292969 44.043-0.292969ZM34.668-12.6465L53.8086-12.6465Q55.4199-12.6465 56.6162-13.7451Q57.8125-14.8438 57.9102-16.4062L57.959-17.5293L51.5137-23.9746L51.2207-19.4824Q51.1719-19.0918 50.9277-18.8477Q50.6836-18.6035 50.293-18.6035Q49.3164-18.6035 49.3652-19.6289L49.7559-25.7324L44.9707-30.5176L44.9707-19.6289Q44.9707-18.6523 43.9453-18.6523Q43.0176-18.6523 43.0176-19.6289L43.0176-32.5684L37.5-38.0371L38.5742-19.6289Q38.6719-18.6035 37.6465-18.6035Q36.8164-18.6035 36.7676-19.5312L35.3027-40.2832L28.9551-46.5332L30.5176-16.5039Q30.5664-14.8926 31.7627-13.7695Q32.959-12.6465 34.668-12.6465ZM61.2793-16.6504Q61.6211-16.3574 62.0605-16.333Q62.5-16.3086 62.793-16.6016Q63.0859-16.9922 63.0859-17.4072Q63.0859-17.8223 62.793-18.1152L26.5625-54.3945Q26.2695-54.6875 25.8301-54.6875Q25.3906-54.6875 25.0488-54.3945Q24.7559-54.0527 24.7559-53.6133Q24.7559-53.1738 25.0488-52.9297ZM58.3984-25L59.668-49.3652L63.3789-49.3652Q63.7695-49.3652 64.0625-49.6338Q64.3555-49.9023 64.3555-50.3418Q64.3555-50.6836 64.0625-51.001Q63.7695-51.3184 63.3789-51.3184L52.9785-51.3184L52.9785-54.9805Q52.9785-56.7871 51.6846-57.9834Q50.3906-59.1797 48.3398-59.1797L40.0879-59.1797Q37.9883-59.1797 36.7432-57.9834Q35.498-56.7871 35.498-54.9805Q35.498-54.1016 35.498-53.1982Q35.498-52.2949 35.498-51.416L31.9824-51.416L43.0176-40.332L43.0176-43.5547Q43.0176-43.9453 43.2617-44.1895Q43.5059-44.4336 43.9453-44.4336Q44.9707-44.4336 44.9707-43.5059L44.9707-38.3789L50.1465-33.2031L50.7812-43.5547Q50.8301-44.4336 51.8066-44.4336Q52.9297-44.4336 52.832-43.457L52.002-31.3477ZM37.4023-51.3184L37.4023-54.834Q37.4023-57.1289 39.9414-57.1289L48.0957-57.1289Q50.7324-57.1289 50.7324-54.834L50.7324-51.3184Z"/>
  </g>
 </g>
</svg>
